<?xml version="1.0" standalone="no"?>
<!DOCTYPE svg PUBLIC "-//W3C//DTD SVG 1.1//EN" "http://www.w3.org/Graphics/SVG/1.1/DTD/svg11.dtd" >
<!--
2017-11-14: Created.
-->
<svg xmlns="http://www.w3.org/2000/svg">
<metadata>
Created by FontForge 20120731 at Tue Nov 14 06:30:41 2017
 By icons8

</metadata>
<defs>
<font id="Arlo-starter-template--Master" horiz-adv-x="512" >
  <font-face 
    font-family="Arlo-starter-template--Master"
    font-weight="500"
    font-stretch="normal"
    units-per-em="512"
    panose-1="2 0 6 3 0 0 0 0 0 0"
    ascent="448"
    descent="-64"
    bbox="-0.980964 -64.3001 512.64 448.96"
    underline-thickness="25.6"
    underline-position="-51.2"
    unicode-range="U+0020-F189"
  />
    <missing-glyph />
    <glyph glyph-name="space" unicode=" " horiz-adv-x="200" 
 />
    <glyph glyph-name="shop" unicode="&#xf125;" 
d="M40.96 386.56h430.08v-61.4395v-0.639648c0.839844 -4.12012 10.2402 -49.2002 10.2402 -76.1602c0 -14.1201 -2.76074 -27.6006 -10.2402 -38.4004v-253.439h-430.08v253.439c-7.47949 10.7998 -10.2402 24.2803 -10.2402 38.4004
c0 27.2393 9.60059 73.6396 10.2402 76.7998v61.4395zM61.4404 366.08v-30.7197h49.2793c0.320312 0.120117 0.640625 0.239258 0.959961 0.319336c1.08008 0.0800781 2.16016 -0.0400391 3.2002 -0.319336h67.5205c0.319336 0.120117 0.639648 0.239258 0.959961 0.319336
c1.08008 0.0800781 2.15918 -0.0400391 3.19922 -0.319336h67.5205c0.320312 0.120117 0.639648 0.239258 0.959961 0.319336c1.08008 0.0800781 2.16016 -0.0400391 3.2002 -0.319336h67.5195c0.320312 0.120117 0.640625 0.239258 0.959961 0.319336
c1.08008 0.0800781 2.16016 -0.0400391 3.2002 -0.319336h67.2002c1.36035 0.279297 2.7998 0.279297 4.16016 0h49.2793v30.7197h-389.119zM60.1602 314.88c-1.75977 -9.39941 -8.95996 -46.3604 -8.95996 -66.5596c0 -11.3203 2.31934 -21 6.39941 -26.8799
c1.08008 -0.880859 1.91992 -1.95996 2.56055 -3.2002c3.71973 -3.75977 8.71973 -5.75977 16.6396 -5.75977c10.2002 0 19.04 4.59961 25.6006 11.5195v90.8799h-42.2402zM122.88 314.88v-90.8799c6.56055 -6.91992 15.4004 -11.5195 25.6006 -11.5195
c10.1992 0 19.0391 4.59961 25.5996 11.5195v90.8799h-51.2002zM194.56 314.88v-90.8799c6.56055 -6.91992 15.4004 -11.5195 25.6006 -11.5195s19.04 4.59961 25.5996 11.5195v90.8799h-51.2002zM266.24 314.88v-90.8799
c6.55957 -6.91992 15.3994 -11.5195 25.5996 -11.5195c10.1602 0 19.0801 4.35938 25.6006 11.1992v91.2002h-51.2002zM337.92 314.88v-91.2002c6.52051 -6.83984 15.4404 -11.1992 25.5996 -11.1992c10.1602 0 19.0801 4.35938 25.6006 11.1992v91.2002h-51.2002z
M409.6 314.88v-91.2002c6.52051 -6.83984 15.4404 -11.1992 25.6006 -11.1992c7.24023 0 12.0801 1.63965 15.6797 4.7998c0.679688 2.67969 2.40039 5 4.7998 6.39941c3.28027 5.95996 5.12012 14.5605 5.12012 24.6406c0 20.1992 -7.2002 57.1602 -8.95996 66.5596
h-42.2402zM327.68 207.04c-9.83984 -8.59961 -21.7197 -15.04 -35.8398 -15.04c-14.0801 0 -26 6.16016 -35.8398 14.7197c-9.83984 -8.55957 -21.7598 -14.7197 -35.8398 -14.7197s-26 6.16016 -35.8398 14.7197c-9.83984 -8.55957 -21.7607 -14.7197 -35.8398 -14.7197
c-14.0801 0 -26 6.16016 -35.8408 14.7197c-9.83984 -8.55957 -21.7598 -14.7197 -35.8398 -14.7197c-5.43945 0 -10.6797 0.959961 -15.3594 2.55957v-217.6h245.76v184.32h112.64v-184.32h30.7197v217.6c-4.67969 -1.59961 -9.91992 -2.55957 -15.3594 -2.55957
c-14.1201 0 -26 6.44043 -35.8398 15.04c-9.84082 -8.59961 -21.7207 -15.04 -35.8408 -15.04c-14.1191 0 -26 6.44043 -35.8398 15.04zM92.1602 161.28h184.32v-153.601h-184.32v153.601zM112.64 140.8v-112.64h143.36v112.64h-143.36zM327.68 140.8v-163.84h71.6807
v163.84h-71.6807z" />
    <glyph glyph-name="help" unicode="&#xf164;" 
d="M256 448c141.28 0 256 -114.72 256 -256s-114.72 -256 -256 -256s-256 114.72 -256 256s114.72 256 256 256zM256 427.52c-130.2 0 -235.52 -105.319 -235.52 -235.52s105.319 -235.52 235.52 -235.52s235.52 105.319 235.52 235.52s-105.319 235.52 -235.52 235.52z
M258.88 320c39.6396 0 66.5605 -26.04 66.5605 -62.4004c0 -17.6396 -6.40039 -30.7197 -18.8809 -48l-24.3193 -33.5996c-7.36035 -9.91992 -9.60059 -15.04 -9.60059 -27.5195v-11.8408c0 -2.19922 -1.63965 -3.51953 -3.83984 -3.51953h-24
c-2.2002 -0.0400391 -3.83984 1.32031 -3.83984 3.51953v15.04c0 14.7207 3.16016 22.3203 10.8799 32.96l24.6406 33.9199c12.8398 17.6406 17.2793 25.9209 17.2793 38.4004c0 20.9199 -14.5596 34.2402 -35.5195 34.2402c-20.5605 0 -33.6807 -12.4805 -38.0801 -34.8799
c-0.360352 -2.2002 -1.95996 -3.24023 -4.16016 -2.87988l-23.04 4.15918c-2.2002 0.360352 -3.55957 1.64062 -3.2002 3.84082c5.52051 35.2393 30.9199 58.5596 69.1201 58.5596zM242.88 104.96h27.8398c2.2002 0 3.83984 -1.32031 3.83984 -3.51953v-31.6807
c0 -2.2002 -1.63965 -3.51953 -3.83984 -3.51953h-27.8398c-2.24023 0 -3.83984 1.31934 -3.83984 3.51953v31.6807c0 2.19922 1.63965 3.51953 3.83984 3.51953z" />
    <glyph glyph-name="id-verified" unicode="&#xf12e;" 
d="M256 427.52c22.5195 0 40.96 -18.4395 40.96 -40.96h81.9199c16.8398 0 30.7197 -13.8799 30.7197 -30.7197v-215.04c56.4404 0 102.4 -45.96 102.4 -102.399c0 -56.4404 -45.96 -102.4 -102.4 -102.4c-41.8398 0 -77.8799 25.4004 -93.7598 61.4404h-182.72
c-16.8398 0 -30.7197 13.8799 -30.7197 30.7197v327.68c0 16.8398 13.8799 30.7197 30.7197 30.7197h81.9199c0 22.5205 18.4404 40.96 40.96 40.96zM256 407.04c-11.4404 0 -20.4805 -9.04004 -20.4805 -20.4805v-30.7197h40.9609v30.7197
c0 11.4404 -9.04004 20.4805 -20.4805 20.4805zM256 396.8c5.63965 0 10.2402 -4.59961 10.2402 -10.2402c0 -5.63965 -4.60059 -10.2393 -10.2402 -10.2393s-10.2402 4.59961 -10.2402 10.2393c0 5.64062 4.60059 10.2402 10.2402 10.2402zM133.12 366.08
c-5.7998 0 -10.2402 -4.44043 -10.2402 -10.2402v-327.68c0 -5.7998 4.44043 -10.2402 10.2402 -10.2402h176.32c-1.36035 6.63965 -2.24023 13.4404 -2.24023 20.4805c0 18.6797 5.28027 36.0801 14.0801 51.1992h-157.44v10.2402
c0 12.4004 4.40039 22.8398 10.8799 30.0801c6.48047 7.24023 14.5605 11.5996 22.0801 15.04c7.52051 3.44043 14.4805 5.71973 19.5205 8.32031c4.59961 2.39941 6.51953 4.35938 7.35938 6.08008c0.280273 4.19922 0.360352 8.08008 0.320312 12.1592
c-0.240234 0.320312 -0.719727 0.640625 -0.959961 0.960938c-1.52051 2.03906 -2.87988 4.19922 -4.16016 6.71973c-1.83984 3.67969 -3.12012 8.31934 -4.16016 12.7998c-1.16016 0.879883 -2.59961 1.04004 -3.51953 2.24023
c-3.04004 3.87988 -4.68066 8.75977 -5.44043 15.04c-0.639648 5.31934 0.759766 9.55957 2.87988 13.1201c-3.67969 16.3193 -5.08008 32.2393 0.959961 46.0801c6.68066 15.2793 23.1602 25.5195 45.7607 25.9199h0.319336c9.40039 0 17.8398 -2.7207 24.3203 -8.64062
c8.55957 -1.75977 15.7998 -6.12012 20.1602 -12.1602c4.75977 -6.59961 6.47949 -14.2393 7.04004 -21.4395c0.919922 -11.9199 -1.64062 -21.6797 -3.83984 -29.4404c2.19922 -3.59961 3.51953 -8.04004 2.87988 -13.4395
c-0.759766 -6.28027 -2.40039 -11.1602 -5.44043 -15.04c-0.919922 -1.2002 -2.35938 -1.36035 -3.51953 -2.24023c-1 -4.44043 -2.36035 -9.12012 -4.16016 -12.7998c-1.24023 -2.52051 -2.32031 -4.64062 -3.83984 -6.71973
c-0.240234 -0.320312 -0.720703 -0.640625 -0.959961 -0.960938c-0.0400391 -4.0791 0.0400391 -7.95996 0.319336 -12.1592c0.640625 -1.12012 1.87988 -2.60059 6.08008 -4.80078c4.68066 -2.47949 11.4004 -5.0791 18.5605 -8.31934s14.8398 -7.36035 21.4395 -13.7598
c4.12012 -4 7.48047 -9.16016 9.91992 -15.04c12.6406 10.4395 27.8408 17.7197 44.4805 21.1191v217.28c0 5.7998 -4.44043 10.2402 -10.2402 10.2402h-81.9199v-20.4805c0 -5.63965 -4.59961 -10.2393 -10.2402 -10.2393h-61.4395
c-5.64062 0 -10.2402 4.59961 -10.2402 10.2393v20.4805h-81.9199zM255.68 273.92c-17.5996 -0.320312 -23.5996 -5.24023 -27.1992 -13.4395c-3.60059 -8.2002 -3.48047 -22.2803 0.639648 -38.0801l1.91992 -7.36035l-5.12012 -3.2002
c0.360352 -3.04004 0.759766 -3.75977 0.959961 -4.16016l6.08008 -0.319336l0.959961 -8.64062c0.320312 -2.87988 1.56055 -7 3.2002 -10.2393c0.799805 -1.64062 1.95996 -3.04004 2.55957 -3.84082c0.280273 -0.399414 0.640625 -0.599609 0.640625 -0.639648
l4.16016 -2.24023v-6.08008c0 -6.43945 0.399414 -12.1992 -0.320312 -20.1602l-0.640625 -2.55957c-3.31934 -8.87988 -10.6797 -14 -17.5996 -17.5996c-6.91992 -3.60059 -14.3604 -6.36035 -20.7998 -9.28027c-6.44043 -2.91992 -11.5605 -6.04004 -15.04 -9.91992
c-1.28027 -1.44043 -1.36035 -4.32031 -2.24023 -6.08008h136.32c-1.2002 2.55957 -1.44043 5.67969 -3.52051 7.67969c-3.7998 3.7207 -9.39941 7.08008 -15.6797 9.91992s-13.04 5.24023 -19.5195 8.64062c-6.48047 3.39941 -13.5205 8.23926 -16.6406 16.6396
l-0.639648 1.28027v1.2793c-0.719727 7.96094 -0.320312 13.7207 -0.320312 20.1602v6.08008l4.7998 2.56055c0.560547 0.799805 1.44043 2.19922 2.24023 3.83984c1.60059 3.24023 2.87988 7.55957 3.2002 10.5596l0.959961 8.64062l6.08008 0.319336
c0.200195 0.400391 0.599609 1.12012 0.959961 4.16016l-5.75977 3.52051l2.55957 7.67969c1.7998 5.40039 4.60059 17.96 3.83984 27.5195c-0.359375 4.76074 -1.51953 8.52051 -3.2002 10.8809c-1.67969 2.35938 -3.59961 3.7998 -8.63965 4.47949l-4.7998 0.959961
l-2.56055 4.16016c-0.0390625 0.0800781 -3.59961 2.87988 -11.8398 2.87988zM409.6 120.32c-45.3594 0 -81.9199 -36.5605 -81.9199 -81.9199c0 -45.3604 36.5605 -81.9199 81.9199 -81.9199c45.3604 0 81.9199 36.5596 81.9199 81.9199
c0 45.3594 -36.5596 81.9199 -81.9199 81.9199zM444.48 87.6797l17.2793 -10.8799l-50.8799 -79.04l-6.71973 -10.2402l-8.95996 8.32031l-35.8398 32.3203l13.7598 15.3594l26.8799 -24.6396z" />
    <glyph glyph-name="medal-first-place" unicode="&#xf116;" 
d="M47.04 427.84h0.959961c3.91992 -0.160156 7.36035 -2.51953 8.95996 -6.08008l89.2803 -179.84c3.67969 3.32031 7.55957 6.32031 11.5195 9.28027l-80.96 161.6c-1.47949 2.83984 -1.51953 6.2002 -0.120117 9.12012c1.36035 2.87988 4.04004 4.95996 7.16016 5.59961
c0.719727 0.200195 1.48047 0.280273 2.24023 0.320312c3.91992 -0.160156 7.36035 -2.51953 8.95996 -6.08008l79.6797 -159.359c11.8398 6.7998 24.6406 12.3193 38.0801 16l13.7598 27.1992l-55.6797 106.881c-1.59961 2.87988 -1.71973 6.35938 -0.320312 9.31934
c1.40039 2.95996 4.12012 5.12012 7.36035 5.71973c0.320312 0.120117 0.639648 0.240234 0.959961 0.320312c4.28027 0.44043 8.36035 -1.87988 10.2402 -5.75977l48.6396 -94.0801l7.36035 14.4004c-0.400391 0.599609 -0.719727 1.23926 -0.959961 1.91992
l-35.2002 68.1602c-1.59961 2.91992 -1.67969 6.43945 -0.240234 9.43945c1.48047 3 4.32031 5.08008 7.60059 5.59961c4.43945 0.760742 8.83984 -1.43945 10.8799 -5.43945l29.1201 -56.96l28.4795 56.6396c1.44043 3.08008 4.32031 5.24023 7.68066 5.75977
c3.75977 0.520508 7.51953 -1.0791 9.71973 -4.15918c2.2002 -3.12012 2.51953 -7.16016 0.839844 -10.5605l-64.6396 -129.6c5.08008 0.55957 10.1592 0.879883 15.3594 0.959961l69.1201 137.6c1.44043 3.08008 4.32031 5.24023 7.67969 5.75977
c3.76074 0.520508 7.52051 -1.0791 9.7207 -4.15918c2.2002 -3.12012 2.51953 -7.16016 0.839844 -10.5605l-65.2803 -129.92c21.8398 -2.67969 42.4404 -9.75977 60.7998 -20.1602l80.3203 159.04c1.44043 3.08008 4.32031 5.24023 7.67969 5.75977
c3.76074 0.520508 7.52051 -1.0791 9.7207 -4.15918c2.19922 -3.12012 2.51953 -7.16016 0.839844 -10.5605l-81.6006 -161.28c4.32031 -3.23926 8.48047 -6.59961 12.4805 -10.2393l96 180.8c1.32031 2.71973 3.7998 4.71973 6.71973 5.43945
c0.400391 0.120117 0.839844 0.240234 1.28027 0.320312c3.83984 0.400391 7.59961 -1.39941 9.67969 -4.63965c2.12012 -3.24023 2.2002 -7.40039 0.240234 -10.7197l-98.5596 -186.561c24 -28.5195 38.3994 -65.4795 38.3994 -105.6
c0 -90.3604 -73.4795 -163.84 -163.84 -163.84s-163.84 73.4795 -163.84 163.84c0 40.3594 14.7598 77.3594 39.04 105.92l-92.7998 186.56c-1.48047 2.87988 -1.48047 6.32031 -0.0400391 9.2002c1.47949 2.91992 4.19922 4.95996 7.39941 5.51953
c0.400391 0.120117 0.839844 0.240234 1.28027 0.320312zM256 263.68c-28.2402 0 -54.6396 -8.04004 -76.7998 -22.0801c-1.44043 -2.08008 -3.60059 -3.55957 -6.08008 -4.15918c-36.6396 -25.96 -60.4805 -68.7207 -60.4805 -117.12
c0 -79.2803 64.0801 -143.36 143.36 -143.36s143.36 64.0801 143.36 143.36c0 79.2793 -64.0801 143.359 -143.36 143.359zM264.32 253.12l4.7998 -0.320312h0.959961l5.43945 -0.959961l-3.19922 -20.1602l-4.16016 0.640625h-1.28027l-3.83984 0.319336zM241.6 252.8
l3.2002 -20.4795l-10.2402 -1.60059l-3.19922 20.4805zM297.6 246.72l9.60059 -3.51953l-7.04004 -19.2002l-9.60059 3.51953zM209.6 245.12l7.04004 -19.2002l-4.15918 -1.59961l-0.320312 -0.320312h-0.320312l-3.51953 -1.91992l-8.95996 18.5596l4.47949 2.24023
h0.320312l0.639648 0.320312zM327.04 232.64l2.87988 -1.59961l0.639648 -0.320312l0.320312 -0.319336l5.44043 -4.16016l-12.1602 -16.3203l-4.7998 3.52051l-0.640625 0.639648l-2.23926 1.28027zM179.84 229.44l12.1602 -16.3203l-7.36035 -5.44043v-0.319336
l-0.639648 -0.320312l-5.12012 6.71973l-0.959961 1.28027l-7.04004 7.67969l0.320312 0.320312l0.639648 0.320312zM352.96 211.2l5.44043 -5.75977l0.319336 -0.320312l0.320312 -0.639648l1.28027 -1.60059l-16.3203 -12.4795l-0.639648 1.2793l-0.640625 0.640625
l-4.7998 5.12012zM155.52 207.36l15.04 -13.7607l-1.91992 -1.91992l-3.83984 -5.43945l-16.3193 12.4795l4.47949 5.76074l0.320312 0.639648zM254.72 193.6h23.04v-143.359h-29.1201v92.7998h-36.1592v22.0801c31.1191 0 38.2793 13.8799 42.2393 28.4795zM372.48 184.96
l0.639648 -1.28027v-0.319336l4.16016 -8.64062l-18.2402 -8.95996l-4.16016 8.32031v0.320312l2.24023 1.2793zM136.96 179.2l18.2402 -8.64062l-2.87988 -6.0791l-0.320312 -0.640625l-0.639648 -1.91992l-19.2002 7.04004l0.959961 2.55957l0.320312 0.640625v0.320312z
M384.96 153.28l1.28027 -5.76074l0.319336 -0.319336v-0.640625l0.640625 -4.15918l-20.1602 -3.2002l-0.320312 3.2002h-0.319336l-1.28027 5.75977zM125.76 148.48l17.2803 -4.48047l2.55957 -0.320312v-1.2793h-0.319336l-0.959961 -8.32031l-20.1602 3.2002
l1.28027 9.2793v0.640625l0.319336 0.319336v0.960938zM368.64 120.96l20.4805 -1.28027l-0.639648 -10.2393l-20.4805 0.959961l0.639648 9.2793v1.28027zM143.68 115.84l0.320312 -6.39941v-1.28027l0.320312 -1.60059l-20.1602 -3.19922l-0.640625 2.87988v0.959961
l-0.319336 7.35938zM365.12 92.4805l19.8398 -5.12012l-1.59961 -6.08008l-0.320312 -0.640625v-0.319336l-1.59961 -3.83984l-19.2002 7.03906l1.2793 2.88086v0.639648l0.320312 0.320312zM148.16 87.3604l0.320312 -0.959961l2.87988 -7.68066l-19.2002 -7.04004
l-3.2002 8.64062v0.319336l-0.320312 0.640625l-0.319336 0.959961zM354.88 66.5596l17.6006 -10.8799l-5.44043 -8.63965l-17.5996 10.5596zM159.68 62.0801l2.56055 -4.48047l0.639648 -0.639648l1.91992 -2.55957l-16.3193 -12.4805l-2.56055 3.52051l-0.320312 0.319336
l-0.319336 0.640625l-2.87988 5.11914zM337.92 43.2002l15.04 -13.7598l-2.55957 -2.88086l-0.640625 -0.639648l-4.7998 -4.47949l-13.7598 15.3594l4.16016 3.52051l0.639648 0.639648zM176.96 40l7.67969 -6.71973l-13.7598 -15.3604l-7.67969 7.04004zM316.48 25.2803
l10.5596 -17.2803l-7.04004 -4.48047l-0.639648 -0.319336h-0.320312l-1.59961 -0.959961l-8.95996 18.5596l0.639648 0.320312l0.959961 0.320312zM200 22.7197l1.91992 -1.2793l0.959961 -0.320312l5.44043 -2.56055l-8.95996 -18.5596l-6.40039 3.2002h-0.320312
l-0.639648 0.319336l-2.55957 1.60059zM290.56 13.1201l7.04004 -19.2002l-1.59961 -0.639648h-0.320312l-0.639648 -0.320312l-8.32031 -2.24023l-5.12012 19.8398l7.36035 1.9209l0.320312 0.319336h0.639648zM225.6 11.8398l8.32031 -1.91992h0.639648l-3.19922 -20.4795
l-1.60059 0.319336h-0.639648l-0.320312 0.320312l-8.31934 1.91992zM263.04 8l1.28027 -20.4805l-7.68066 -0.319336h-3.83984l1.28027 20.4795h2.55957z" />
    <glyph glyph-name="handshake" unicode="&#xf12a;" 
d="M350.4 405.76c3.47949 0.200195 7.08008 0.240234 10.5596 0c13.8398 -1.04004 27.2803 -5.51953 39.04 -13.7598l1.28027 -0.959961l0.959961 -0.959961l3.83984 -4.48047c13.7598 -9.11914 29.5195 -11.9199 44.7998 -7.67969h0.320312l0.319336 0.320312l48 10.2402
c5.56055 1.23926 11.0801 -2.28027 12.3203 -7.84082c1.24023 -5.55957 -2.28027 -11.0801 -7.83984 -12.3193l-47.6797 -9.91992l-0.640625 -0.320312v0.320312c-21.0801 -5.64062 -43.4795 -2.24023 -62.0801 10.5596l-1.2793 0.639648l-0.959961 1.28027
l-3.84082 4.48047c-17.3193 11.6797 -39.3594 13.5996 -58.2393 4.15918h-0.320312l-54.0801 -26.5596c-1.55957 -1.55957 -3.59961 -2.55957 -5.75977 -2.87988l-126.4 -61.7598l-0.319336 -0.320312h-0.640625c-1.71973 -0.639648 -1.63965 -1.55957 -0.319336 -2.87988
l0.319336 -0.320312c24.7998 -27.5596 64.2002 -36.5596 99.2002 -22.7197l66.5596 25.5996c4.44043 1.68066 9.48047 0.120117 12.1602 -3.83984l0.320312 -0.320312c0.55957 -0.359375 1.12012 -0.799805 1.59961 -1.2793l126.08 -126.08
c0.800781 -0.799805 1.52051 -1.71973 2.24023 -2.56055l6.08008 6.08008l3.2002 0.320312l40.96 6.40039c5.63965 0.879883 10.96 -3 11.8398 -8.64062c0.879883 -5.63965 -3 -10.96 -8.63965 -11.8398l-37.7607 -5.43945l-6.08008 -6.08008
c3.08008 -14.2002 -0.839844 -29.6406 -11.8398 -40.6406c-9.83984 -9.83984 -23.2393 -13.5996 -36.1602 -12.1602c1.40039 -12.9199 -2.31934 -26.3193 -12.1592 -36.1592c-11.5205 -11.5205 -27.8008 -14.4404 -42.5605 -10.5605
c-0.240234 -11 -4.43945 -22.04 -12.7998 -30.3994c-11.5195 -11.5205 -27.7598 -14.4805 -42.5596 -10.5605c-0.240234 -11 -4.12012 -22.04 -12.4805 -30.4004c-17.2002 -17.1992 -45.5195 -17.1992 -62.7197 0l-15.6807 15.6807
c-13.3193 -4.56055 -28.6797 -1.7998 -39.3594 8.63965l-0.320312 0.320312c-7.51953 7.51953 -11.1201 17.7197 -10.8799 27.8398c-10.0801 -0.160156 -20.2002 3.55957 -27.8398 11.2002c-7.83984 7.83984 -11.5205 18.2002 -11.2002 28.4795
c-10.3604 -0.439453 -20.8799 3.28027 -28.7998 11.2002s-11.6406 18.4404 -11.2002 28.7998c-10.3604 -0.439453 -20.8799 3.28027 -28.7998 11.2002c-9.7998 9.7998 -12.96 23.5605 -9.91992 36.1602l-33.6006 6.08008
c-5.63965 0.360352 -9.95996 5.24023 -9.59961 10.8799s5.24023 9.95996 10.8799 9.59961c0.639648 -0.0400391 1.28027 -0.15918 1.91992 -0.319336l41.2803 -7.04004l9.28027 9.2793c7.47949 7.48047 17.3594 11.2002 27.1992 11.2002
c9.84082 0 19.7207 -3.71973 27.2002 -11.2002c7.83984 -7.83984 11.5205 -18.1992 11.2002 -28.4795c0.519531 0.0400391 1.08008 0 1.59961 0c9.84082 0 19.7207 -4.04004 27.2002 -11.5205c7.83984 -7.83984 11.5205 -18.1992 11.2002 -28.4795
c0.519531 0.0400391 1.08008 0 1.59961 0c9.84082 0 19.7207 -3.71973 27.2002 -11.2002c7.64062 -7.63965 11.3604 -17.7598 11.2002 -27.8398h0.320312c9.83984 0 19.7197 -3.71973 27.1992 -11.2002c15 -15 15 -39.3994 0 -54.3994l-7.67969 -7.68066l12.7998 -12.7998
c9.40039 -9.40039 24.2002 -9.40039 33.6006 0c9.39941 9.40039 9.39941 24.5205 0 33.9199c-3.95996 4.08008 -3.91992 10.6006 0.160156 14.5605s10.5996 3.91992 14.5596 -0.160156l7.04004 -7.36035c9.40039 -9.39941 24.2002 -9.39941 33.5996 0
c9.40039 9.40039 9.40039 24.5205 0 33.9199c-3.2793 4.08008 -2.95996 9.95996 0.720703 13.6807c3.71973 3.67969 9.59961 4 13.6797 0.719727l7.36035 -7.36035c9.39941 -9.39941 24.1992 -9.39941 33.5996 0c9.40039 9.40039 9.40039 24.5205 0 33.9199
c-3.28027 4.08008 -2.95996 9.95996 0.719727 13.6807c3.7207 3.67969 9.60059 4 13.6807 0.719727c9.39941 -9.40039 24.1992 -9.40039 33.5996 0c9.40039 9.39941 9.40039 24.2002 0 33.5996l-124.16 124.48l-60.1602 -23.3604h-0.319336
c-42.5205 -16.6396 -90.8008 -5.55957 -121.28 27.8398c-0.160156 0.160156 -0.480469 0.160156 -0.639648 0.320312l0.319336 0.320312c-10.04 10.7598 -6.47949 29.2393 7.04004 35.1992c0.360352 0.160156 0.600586 0.480469 0.959961 0.640625l87.04 42.5596h-120.64
l-1.28027 0.320312l-92.1602 22.4004c-4.87988 1.0791 -8.23926 5.51953 -8 10.4795c0.240234 5 4 9.08008 8.95996 9.67969c1.40039 0.160156 2.80078 0.0800781 4.16016 -0.319336l90.8799 -22.0801h160l56.3203 27.5195c9.67969 4.83984 19.96 7.40039 30.4004 8z
M89.5996 162.88c-4.47949 0 -9.04004 -2 -12.7998 -5.75977l-1.28027 -1.60059l-8.31934 -8c-0.719727 -2.0791 -2.04004 -3.83984 -3.83984 -5.11914c-3.87988 -6.88086 -2.95996 -14.96 3.19922 -21.1201c7.52051 -7.52051 18.0801 -7.52051 25.6006 0l1.28027 1.59961
l0.959961 0.959961l8 7.67969c7.51953 7.52051 7.51953 18.0801 0 25.6006c-3.76074 3.75977 -8.32031 5.75977 -12.8008 5.75977zM129.6 122.88c-4.47949 0 -9.04004 -2 -12.7998 -5.75977l-10.2402 -10.2402c-7.51953 -7.51953 -7.51953 -17.7598 0 -25.2803
c7.52051 -7.51953 18.0801 -7.51953 25.6006 0l10.2402 10.2402c7.51953 7.52051 7.51953 17.7598 0 25.2803c-3.76074 3.75977 -8.32031 5.75977 -12.8008 5.75977zM169.6 82.8799c-4.47949 0 -9.04004 -2 -12.7998 -5.75977l-0.639648 -0.639648l-1.91992 -1.60059
l-7.68066 -8c-7.51953 -7.51953 -7.51953 -17.7598 0 -25.2803c6.2002 -6.19922 14.2803 -7.23926 21.1201 -3.19922c0.919922 1.31934 1.76074 2.59961 2.87988 3.83984h0.320312v0.319336l10.2402 10.2402c1.28027 1.28027 2.75977 2.16016 4.16016 3.2002
c4.04004 6.83984 3 14.9199 -3.2002 21.1201c-3.75977 3.75977 -8 5.75977 -12.4805 5.75977zM208.32 43.8398c-2.68066 0 -5.44043 -0.639648 -8 -1.91992c-1.12012 -1.51953 -2.16016 -3.12012 -3.52051 -4.47949l-10.2402 -10.2402
c-1.15918 -1.16016 -2.55957 -1.87988 -3.83984 -2.87988c-3.39941 -7.24023 -2.2793 -16.9199 2.56055 -21.7607c6.59961 -6.59961 15.5596 -7.51953 22.7197 -2.55957c0.0800781 0.0400391 0.240234 -0.0400391 0.320312 0
c0.959961 0.679688 1.67969 1.67969 2.55957 2.55957l10.2402 10.2402c7.51953 7.52051 7.51953 18.0801 0 25.6006c-3.75977 3.75977 -8.32031 5.43945 -12.7998 5.43945z" />
    <glyph glyph-name="monitor" unicode="&#xf10e;" 
d="M40.96 396.8h430.08c11.2803 0 20.4795 -9.2002 20.4795 -20.4795v-296.96c0 -11.2803 -9.19922 -20.4805 -20.4795 -20.4805h-153.6v-30.7197h30.7197c16.9199 0 30.7197 -13.7998 30.7197 -30.7197v-20.4805h-245.76v20.4805
c0 16.9199 13.7998 30.7197 30.7197 30.7197h30.7197v30.7197h-153.6c-11.2803 0 -20.4795 9.2002 -20.4795 20.4805v296.96c0 11.2793 9.19922 20.4795 20.4795 20.4795zM40.96 376.32v-235.521h430.08v-20.4795h-430.08v-40.96h430.08v296.96h-430.08zM419.84 110.08
h20.4805v-20.4805h-20.4805v20.4805zM215.04 58.8799v-30.7197h81.9199v30.7197h-81.9199zM163.84 7.67969c-5.63965 0 -10.2402 -4.59961 -10.2402 -10.2393h204.801c0 5.63965 -4.60059 10.2393 -10.2402 10.2393h-184.32z" />
    <glyph glyph-name="tv" unicode="&#xf148;" 
d="M0 376.32h512v-327.681h-512v327.681zM20.4805 355.84v-286.72h471.039v286.72h-471.039zM110.72 28.1602h0.959961h0.959961h286.721c3.67969 0.0400391 7.12012 -1.87988 9 -5.08008c1.83984 -3.2002 1.83984 -7.12012 0 -10.3203
c-1.87988 -3.2002 -5.32031 -5.12012 -9 -5.08008h-286.721c-5.63965 -0.519531 -10.6797 3.64062 -11.1992 9.28027c-0.520508 5.63965 3.63965 10.6797 9.2793 11.2002z" />
    <glyph glyph-name="menu" unicode="&#xf130;" 
d="M0 355.84h512v-20.4795h-512v20.4795zM0 202.24h512v-20.4805h-512v20.4805zM0 48.6396h512v-20.4795h-512v20.4795z" />
    <glyph glyph-name="clear-filters" unicode="&#xf134;" 
d="M8.32031 448h0.959961h0.959961h430.08c5.63965 0 10.2393 -4.59961 10.2393 -10.2402v-29.1201c0.0400391 -0.519531 0.0400391 -1.08008 0 -1.59961v-0.639648c-0.0400391 -1.44043 -0.359375 -2.84082 -0.959961 -4.16016
c-0.199219 -0.240234 -0.399414 -0.44043 -0.639648 -0.640625c-0.360352 -0.55957 -0.799805 -1.11914 -1.28027 -1.59961l-1.2793 -1.28027c-0.120117 -0.120117 -0.200195 -0.200195 -0.320312 -0.319336l-159.36 -169.28v-241.92
c-0.0800781 -3.60059 -2.08008 -6.91992 -5.2002 -8.68066c-3.15918 -1.7998 -7.03906 -1.75977 -10.1592 0.0400391l-102.4 61.4404c-3.08008 1.7998 -5.04004 5.08008 -5.12012 8.63965v180.48l-160.96 170.88c-1.83984 1.87988 -2.83984 4.40039 -2.87988 7.04004
v30.7197c-0.0800781 5 3.44043 9.32031 8.32031 10.2402zM20.4805 427.52v-16.6396l158.079 -167.68h93.4404l158.08 167.68v16.6396h-409.6zM184.32 222.72v-168.64l81.9199 -48.96v217.6h-81.9199zM336.96 120.64c3.12012 0.240234 6.2002 -0.919922 8.32031 -3.19922
l74.5596 -74.5605l74.5605 74.5605c1.63965 1.59961 3.7998 2.63965 6.08008 2.87988c4.43945 0.719727 8.87988 -1.52051 10.8398 -5.60059c2 -4.04004 1.12012 -8.91992 -2.2002 -12l-74.5605 -74.5596l74.5605 -74.5605c4.08008 -4.08008 4.08008 -10.6396 0 -14.7197
s-10.6396 -4.08008 -14.7197 0l-74.5605 74.5605l-74.5596 -74.5605c-4.08008 -4.08008 -10.6406 -4.08008 -14.7207 0c-4.0791 4.08008 -4.0791 10.6396 0 14.7197l74.5605 74.5605l-74.5605 74.5596c-2.83984 2.64062 -3.95996 6.64062 -2.87988 10.4004
c1.08008 3.71973 4.16016 6.51953 8 7.2002c0.400391 0.120117 0.839844 0.239258 1.28027 0.319336z" />
    <glyph glyph-name="sign-out" unicode="&#xf17a;" 
d="M256 427.52c77.9297 0 147.114 -37.9414 189.96 -96.3398c1.19824 -1.5332 2.1709 -4.3584 2.1709 -6.30469c0 -5.65332 -4.58789 -10.2412 -10.2412 -10.2412c-2.96777 0 -6.74414 1.9834 -8.42969 4.42578c-39.1357 53.3408 -102.172 87.9805 -173.46 87.9805
c-118.882 0 -215.04 -96.1582 -215.04 -215.04s96.1582 -215.04 215.04 -215.04c71.2881 0 134.324 34.6396 173.46 87.9805c1.68555 2.44238 5.46191 4.42578 8.42969 4.42578c5.65332 0 10.2412 -4.58789 10.2412 -10.2412
c0 -1.94629 -0.972656 -4.77148 -2.1709 -6.30469c-42.8457 -58.3984 -112.03 -96.3398 -189.96 -96.3398c-129.95 0 -235.52 105.569 -235.52 235.52s105.569 235.52 235.52 235.52zM399.26 284.26c2.3877 0 5.67578 -1.38867 7.33984 -3.09961l81 -81
c2.23535 -1.69727 4.0498 -5.35156 4.0498 -8.1582c0 -2.79688 -1.80469 -6.44531 -4.0293 -8.1416l-81.0205 -81.0205c-1.66797 -1.7373 -4.97754 -3.14844 -7.38672 -3.14844c-5.65332 0 -10.2412 4.58789 -10.2412 10.2412c0 2.40918 1.41016 5.71875 3.14844 7.3877
l64.4395 64.4395h-221.04l-0.144531 -0.000976562c-5.65332 0 -10.2412 4.58789 -10.2412 10.2412s4.58789 10.2412 10.2412 10.2412l0.144531 -0.000976562h221.04l-64.4395 64.4395c-1.70996 1.66504 -3.09863 4.95312 -3.09863 7.33887
c0 5.65234 4.58691 10.2402 10.2383 10.2412z" />
    <glyph glyph-name="delete-filled" unicode="&#xf170;" 
d="M93.7598 383.36l162.24 -162.24l162.24 162.24l29.1201 -29.1201l-162.24 -162.24l163.2 -163.2l-29.1201 -29.1201l-163.2 163.2l-163.52 -163.2l-28.8008 28.8008l163.2 163.52l-162.24 162.24z" />
    <glyph glyph-name="price-tag-usd-filled" unicode="&#xf139;" 
d="M491.48 239.32l0.0390625 -3.28027c0.0400391 -13.8398 0.120117 -28.1602 -9.87988 -38.1201l-232.72 -232.76c-5.55957 -5.60059 -13.04 -8.67969 -20.9199 -8.67969c-7.91992 0 -15.3604 3.0791 -20.9199 8.67969l-177.92 177.92
c-5.60059 5.59961 -8.67969 13.04 -8.67969 20.9199c0 7.91992 3.0791 15.3604 8.67969 20.96l232.72 232.68c9.12012 9.12012 21.7598 9.87988 35.04 9.87988l6.44043 -0.0390625l152.319 0.0390625c19.7607 0 35.8398 -16.0791 35.8398 -35.8398zM326.64 176.64
c11.2803 20.4805 19.4805 42 2.08008 66.5605l16.3604 16.3994l-14.3203 14.3203l-16.3994 -16.3604c-13.3203 10.2402 -44.04 21.4805 -68.6006 -3.0791c-46.0801 -46.0801 45.04 -90.1201 10.2402 -124.921c-12.2803 -12.3193 -27.6396 -17.4395 -50.1602 5.12012
c-22.5596 22.5205 -11.2803 46.0801 -2.08008 55.2803l-14.3193 14.3203c-28.6807 -33.7998 -14.3203 -62.4805 -4.08008 -76.7998l-14.3604 -14.3203l14.3604 -14.3604l13.3193 13.3203c13.2803 -9.2002 47.0801 -26.6396 74.7207 2.04004
c23.5596 23.5596 11.2793 50.2002 -3.04004 73.7598c-12.3203 19.4404 -21.5205 36.8398 -7.2002 51.2002c6.16016 6.12012 23.5596 18.3994 45.0801 -3.08008c15.3594 -15.3604 13.2793 -31.7598 4.08008 -45.0801zM399.36 304.64c16.96 0 30.7197 13.7607 30.7197 30.7207
s-13.7598 30.7197 -30.7197 30.7197s-30.7207 -13.7598 -30.7207 -30.7197s13.7607 -30.7207 30.7207 -30.7207z" />
    <glyph glyph-name="tv-show" unicode="&#xf149;" 
d="M0 376.32h512v-327.681h-512v327.681zM20.4805 355.84v-286.72h471.039v286.72h-471.039zM211.2 278.08c1.12012 0 2.51953 -0.400391 3.51953 -0.959961l112.641 -65.2803c2 -1.16016 3.19922 -3.12012 3.19922 -5.43945
c0 -2.32031 -1.19922 -4.60059 -3.19922 -5.76074l-112.641 -65.2793c-1 -0.600586 -2.39941 -0.640625 -3.51953 -0.640625s-2.2002 0.0400391 -3.2002 0.640625c-2 1.15918 -3.2002 3.43945 -3.2002 5.75977v130.24c0 2.31934 1.16016 4.59961 3.2002 5.75977
c1 0.55957 2.08008 0.959961 3.2002 0.959961zM110.72 28.1602h0.959961h0.959961h286.721c3.67969 0.0400391 7.12012 -1.87988 9 -5.08008c1.83984 -3.2002 1.83984 -7.12012 0 -10.3203c-1.87988 -3.2002 -5.32031 -5.12012 -9 -5.08008h-286.721
c-5.63965 -0.519531 -10.6797 3.64062 -11.1992 9.28027c-0.520508 5.63965 3.63965 10.6797 9.2793 11.2002z" />
    <glyph glyph-name="circled-dot" unicode="&#xf158;" 
d="M256 427.52c129.96 0 235.52 -105.56 235.52 -235.52s-105.56 -235.52 -235.52 -235.52s-235.52 105.56 -235.52 235.52s105.56 235.52 235.52 235.52zM256 407.04c-118.88 0 -215.04 -96.1602 -215.04 -215.04s96.1602 -215.04 215.04 -215.04
s215.04 96.1602 215.04 215.04s-96.1602 215.04 -215.04 215.04zM256 232.96c22.6396 0 40.96 -18.3203 40.96 -40.96s-18.3203 -40.96 -40.96 -40.96s-40.96 18.3203 -40.96 40.96s18.3203 40.96 40.96 40.96z" />
    <glyph glyph-name="cancel-filled" unicode="&#xf16c;" 
d="M256 417.28c124.24 0 225.28 -101.04 225.28 -225.28s-101.04 -225.28 -225.28 -225.28s-225.28 101.04 -225.28 225.28s101.04 225.28 225.28 225.28zM350.28 112.2l-79.7998 79.7998l79.7998 79.7998c4 4 4 10.4805 0 14.4805s-10.4805 4 -14.4805 0l-79.7998 -79.7998
l-79.7998 79.7998c-4 4 -10.4805 4 -14.4805 0s-4 -10.4805 0 -14.4805l79.7998 -79.7998l-79.7998 -79.7998c-4 -4 -4 -10.4805 0 -14.4805c2 -2 4.60059 -3 7.24023 -3s5.24023 1 7.24023 3l79.7998 79.7998l79.7998 -79.7998c2 -2 4.60059 -3 7.24023 -3
s5.24023 1 7.24023 3c4 4 4 10.4805 0 14.4805z" />
    <glyph glyph-name="linkedin-filled" unicode="&#xf15e;" 
d="M409.6 448c56.4805 0 102.4 -45.9199 102.4 -102.4v-307.199c0 -56.4805 -45.9199 -102.4 -102.4 -102.4h-307.199c-56.4805 0 -102.4 45.9199 -102.4 102.4v307.199c0 56.4805 45.9199 102.4 102.4 102.4h307.199zM163.84 90.6396v162.801h-81.9199v-235.521h81.9199
v72.7197zM122.88 279.04c25.6006 0 40.96 17.4004 40.96 38.9199c-1.04004 21.4805 -16.3994 37.8799 -40.96 37.8799c-24.5596 0 -40.96 -16.3994 -40.96 -37.8799c0 -21.5195 16.4004 -38.9199 40.96 -38.9199zM430.08 17.9199v133.12
c0 68.5996 -39.9199 102.4 -89.0801 102.4c-48.1201 0 -64.5195 -31.7607 -64.5195 -31.7607v31.7607h-81.9209v-235.521h81.9209v133.12s5.11914 40.96 35.8398 40.96c34.7998 0 35.8398 -31.7598 35.8398 -40.96v-133.12h81.9199z" />
    <glyph glyph-name="prize" unicode="&#xf189;" 
d="M256.44 427.52h1c2.39941 -0.119141 4.71973 -1.0791 6.51953 -2.71973l29.04 -26.5996l38.5996 8.04004c5.16016 1.04004 10.2402 -1.95996 11.8408 -6.95996l11.8799 -37.6006l37.4395 -12.3594c4.95996 -1.64062 7.87988 -6.80078 6.75977 -11.9199l-8.51953 -38.5205
l26.2402 -29.3994c3.47949 -3.9209 3.43945 -9.88086 -0.120117 -13.7607l-26.6006 -29.04l8.04004 -38.5996c1.04004 -5.16016 -1.95996 -10.2402 -6.95996 -11.8398l-37.6396 -11.8799l-5.7998 -17.6406v-180c0 -3.55957 -1.83984 -6.83984 -4.83984 -8.71973
c-3.04004 -1.83984 -6.80078 -2.04004 -10 -0.44043l-77.3203 38.6807l-77.3203 -38.6807c-3.19922 -1.59961 -6.95996 -1.39941 -10 0.44043c-3 1.87988 -4.83984 5.16016 -4.83984 8.71973v174.08h0.679688l-7.83984 24.9199l-37.4395 12.3203
c-4.95996 1.63965 -7.87988 6.7998 -6.75977 11.9199l8.51953 38.5205l-26.2402 29.3994c-3.47949 3.91992 -3.43945 9.87988 0.120117 13.7598l26.6006 29.04l-8.04004 38.6006c-1.04004 5.16016 1.95996 10.2393 6.95996 11.8398l37.6396 11.8398l12.3203 37.4404
c1.63965 5 6.7998 7.91992 11.9199 6.7998l38.5195 -8.56055l29.4004 26.2803c1.71973 1.56055 3.91992 2.48047 6.24023 2.59961zM256.92 403.48l-26.4004 -23.5605c-2.43945 -2.2002 -5.83984 -3.08008 -9.03906 -2.40039l-34.6006 7.68066l-11.04 -33.6006
c-1.04004 -3.15918 -3.51953 -5.59961 -6.67969 -6.59961l-33.7598 -10.5996l7.19922 -34.6807c0.680664 -3.23926 -0.239258 -6.59961 -2.47949 -9l-23.9199 -26.1201l23.5996 -26.3994c2.16016 -2.44043 3.04004 -5.83984 2.32031 -9.04004l-7.63965 -34.6006
l33.6396 -11.04c3.12012 -1.03906 5.55957 -3.51953 6.55957 -6.67969l10.6006 -33.7598l34.6797 7.2002c3.24023 0.679688 6.59961 -0.240234 9 -2.48047l26.1201 -23.9199l26.4004 23.6006c2.43945 2.15918 5.83984 3.03906 9.03906 2.31934l34.6006 -7.63965
l2.55957 7.7998v1.08008h0.320312l8.16016 24.7598c1.04004 3.12012 3.51953 5.56055 6.67969 6.56055l33.7598 10.5996l-7.19922 34.6797c-0.680664 3.24023 0.239258 6.60059 2.47949 9l23.9199 26.1201l-23.5996 26.4004
c-2.16016 2.43945 -3.04004 5.83984 -2.32031 9.04004l7.63965 34.5996l-33.6396 11.04c-3.12012 1.04004 -5.55957 3.52051 -6.55957 6.67969l-10.6006 33.7607l-34.6797 -7.2002c-3.24023 -0.679688 -6.59961 0.240234 -9 2.47949zM256 366.08
c56.4404 0 102.4 -45.96 102.4 -102.4c0 -56.4395 -45.96 -102.399 -102.4 -102.399s-102.4 45.96 -102.4 102.399c0 56.4404 45.96 102.4 102.4 102.4zM256 345.6c-45.3604 0 -81.9199 -36.5596 -81.9199 -81.9199c0 -45.3594 36.5596 -81.9199 81.9199 -81.9199
s81.9199 36.5605 81.9199 81.9199c0 45.3604 -36.5596 81.9199 -81.9199 81.9199zM219 129.16l-34.6797 -7.2002v-138.68l67.0801 33.5596c2.91992 1.44043 6.2793 1.44043 9.19922 0l67.0801 -33.5596v137.319l-36.4795 8.08008l-29.4004 -26.2393
c-3.91992 -3.48047 -9.87988 -3.44043 -13.7598 0.119141z" />
    <glyph glyph-name="gift" unicode="&#xf127;" 
d="M126.08 437.76c20.4395 0 36.96 -8.63965 49.2803 -20.4795c12.3193 -11.8398 21.1592 -26.7607 29.4395 -40.96c8.28027 -14.2002 16.0801 -27.8398 24.3203 -37.1201s15.7598 -14.0801 26.8799 -14.0801s18.6396 4.7998 26.8799 14.0801s16.04 22.9199 24.3203 37.1201
c8.28027 14.1992 17.1201 29.1201 29.4395 40.96c12.3203 11.8398 28.8408 20.4795 49.2803 20.4795c19.7598 0 34.4805 -6.59961 43.2002 -16.96c8.71973 -10.3594 11.2002 -23.2402 11.2002 -34.2402c0 -26.1592 -14.1602 -47.3994 -33.6006 -61.1191
c-6 -4.24023 -12.3594 -7.60059 -19.2002 -10.5605h114.24v-112.64h-20.4795v-256h-450.561v256h-20.4795v112.64h114.24c-6.84082 2.95996 -13.2002 6.32031 -19.2002 10.5605c-19.4404 13.7197 -33.6006 34.96 -33.6006 61.1191c0 11 2.48047 23.8809 11.2002 34.2402
c8.71973 10.3604 23.4404 16.96 43.2002 16.96zM126.08 417.28c-15.4805 0 -22.96 -4.48047 -27.5205 -9.91992c-4.55957 -5.44043 -6.39941 -13.0801 -6.39941 -20.8008c0 -19.0791 9.32031 -33.6797 24.6396 -44.4795c15.3203 -10.7998 36.6406 -16.96 57.2803 -16.96
h40.3203c-0.200195 0.240234 -0.44043 0.399414 -0.640625 0.639648c-10.4795 11.8398 -18.4395 26.3604 -26.5596 40.3203s-16.6006 27.2002 -26.2402 36.4795c-9.63965 9.28027 -19.8799 14.7207 -34.8799 14.7207zM385.92 417.28
c-15 0 -25.2402 -5.44043 -34.8799 -14.7207c-9.63965 -9.2793 -18.1201 -22.5195 -26.2402 -36.4795s-16.0801 -28.4805 -26.5596 -40.3203c-0.200195 -0.240234 -0.44043 -0.399414 -0.640625 -0.639648h40.3203c20.6396 0 41.96 6.16016 57.2803 16.96
c15.3193 10.7998 24.6396 25.4004 24.6396 44.4795c0 7.7207 -1.83984 15.3604 -6.39941 20.8008c-4.56055 5.43945 -12.04 9.91992 -27.5205 9.91992zM30.7197 294.4v-71.6807h163.84v71.6807h-163.84zM215.04 294.4v-79.6807v-0.959961
c0.0400391 -0.439453 0.0400391 -0.839844 0 -1.2793c0.0800781 -0.640625 0.0800781 -1.28027 0 -1.9209v-243.84h81.9199v243.521c-0.0800781 0.759766 -0.0800781 1.47949 0 2.24023v0.959961v0.959961v80h-81.9199zM317.44 294.4v-71.6807h163.84v71.6807h-163.84z
M51.2002 202.24v-235.521h143.359v235.521h-143.359zM317.44 202.24v-235.521h143.359v235.521h-143.359z" />
    <glyph glyph-name="university" unicode="&#xf12c;" 
d="M255.04 448c1.75977 0.120117 3.51953 -0.200195 5.12012 -0.959961l245.76 -105.28c3.67969 -1.63965 6.04004 -5.2793 6.08008 -9.2793v-17.6006c0 -5.63965 -4.59961 -10.2402 -10.2402 -10.2402h-10.2402c0 -16.5996 -13.1592 -30.7197 -29.7598 -30.7197h-0.959961
v-237.12c12.04 -3.95996 20.4805 -15.7197 20.4805 -29.1201v-10.2393h1.59961c16.4404 0 29.1201 -14.3203 29.1201 -30.7207v-30.7197h-512v30.7197c0 16.4004 12.6797 30.7207 29.1201 30.7207h1.59961v10.2393c0 13.4004 8.44043 25.1602 20.4805 29.1201v237.12
h-0.959961c-16.6006 0 -29.7598 14.1201 -29.7598 30.7197h-10.2402c-5.64062 0 -10.2402 4.60059 -10.2402 10.2402v17.6006c0.0400391 4 2.40039 7.63965 6.08008 9.2793l245.76 105.28c1 0.479492 2.08008 0.799805 3.2002 0.959961zM256 426.56l-235.52 -101.119
v-0.320312h471.039v0.320312zM40.96 304.64c0 -6.04004 4.28027 -10.2393 9.28027 -10.2393h411.52c5 0 9.28027 4.19922 9.28027 10.2393h-430.08zM71.6797 273.92v-235.52h20.4805v235.52h-20.4805zM112.64 273.92v-235.52h51.2002v235.52h-51.2002zM184.32 273.92
v-235.52h20.4795v235.52h-20.4795zM225.28 273.92v-235.52h61.4395v235.52h-61.4395zM307.2 273.92v-235.52h20.4795v235.52h-20.4795zM348.16 273.92v-235.52h51.2002v235.52h-51.2002zM419.84 273.92v-235.52h20.4805v235.52h-20.4805zM59.8398 17.9199
c-4.43945 0 -8.63965 -4.04004 -8.63965 -10.2402v-10.2393h409.6v10.2393c0 6.2002 -4.2002 10.2402 -8.63965 10.2402h-392.32zM29.1201 -23.04c-4.44043 0 -8.63965 -4.04004 -8.63965 -10.2402v-10.2393h471.039v10.2393c0 6.2002 -4.19922 10.2402 -8.63965 10.2402
h-453.76z" />
    <glyph glyph-name="signin" unicode="&#xf178;" 
d="M255.84 427.66l0.160156 0.000976562c5.65332 0 10.2412 -4.58789 10.2412 -10.2412l-0.000976562 -0.139648v-292.721l64.4395 64.4404c1.66895 1.73828 4.97852 3.14844 7.3877 3.14844c5.65332 0 10.2412 -4.58789 10.2412 -10.2412
c0 -2.40918 -1.41113 -5.71875 -3.14844 -7.3877l-81.9199 -81.9199c-1.65625 -1.6543 -4.89941 -2.99805 -7.24023 -2.99805s-5.58398 1.34375 -7.24023 2.99805l-81.9199 81.9199c-1.70996 1.66504 -3.09863 4.95312 -3.09863 7.33984
c0 5.65137 4.58691 10.2393 10.2393 10.2402c2.38672 0 5.6748 -1.38867 7.33984 -3.09961l64.4395 -64.4404v292.721l-0.000976562 0.139648c0 5.56543 4.5166 10.1533 10.0811 10.2402zM337.66 412.26c1.14746 -0.0195312 2.93066 -0.414062 3.97949 -0.879883
c87.7324 -34.2764 149.88 -119.621 149.88 -219.38c0 -129.95 -105.569 -235.52 -235.52 -235.52s-235.52 105.569 -235.52 235.52c0 99.7588 62.1475 185.104 149.88 219.38c0.976562 0.399414 2.625 0.740234 3.67969 0.759766l0.139648 0.000976562
c5.65332 0 10.2412 -4.58789 10.2412 -10.2402c0 -3.90723 -2.96582 -8.19922 -6.62109 -9.58008c-80.0605 -31.2803 -136.84 -109.062 -136.84 -200.32c0 -118.882 96.1582 -215.04 215.04 -215.04s215.04 96.1582 215.04 215.04c0 91.2578 -56.7793 169.04 -136.84 200.32
c-3.84082 1.2998 -6.95801 5.64551 -6.95801 9.7002c0 5.65332 4.58789 10.2412 10.2412 10.2412z" />
    <glyph glyph-name="property-time" unicode="&#xf12d;" 
d="M28.6797 448h393.2c15.7197 0 28.6797 -12.96 28.6797 -28.6797v-247.801c0.0400391 -3.67969 -1.87988 -7.11914 -5.0791 -9c-3.2002 -1.83984 -7.12012 -1.83984 -10.3203 0c-3.2002 1.88086 -5.12012 5.32031 -5.08008 9v184.32h-409.6v-307.2h256
c3.67969 0.0400391 7.11914 -1.87988 9 -5.08008c1.83984 -3.19922 1.83984 -7.11914 0 -10.3193c-1.88086 -3.2002 -5.32031 -5.12012 -9 -5.08008h-266.24c-5.64062 0 -10.2402 4.59961 -10.2402 10.2402v380.92c0 15.7197 12.96 28.6797 28.6797 28.6797zM28.6797 427.52
c-4.75977 0 -8.19922 -3.43945 -8.19922 -8.19922v-43h409.6v43c0 4.75977 -3.44043 8.19922 -8.2002 8.19922h-393.2zM71.6797 294.4h40.96v-20.4805h-40.96v20.4805zM143.36 294.4h235.52v-20.4805h-235.52v20.4805zM71.6797 243.2h40.96v-20.4805h-40.96v20.4805z
M143.36 243.2h235.52v-20.4805h-235.52v20.4805zM71.6797 192h40.96v-20.4805h-40.96v20.4805zM143.36 192h235.52v-20.4805h-235.52v20.4805zM71.6797 140.8h40.96v-20.4795h-40.96v20.4795zM143.36 140.8h163.84v-20.4795h-163.84v20.4795zM409.6 140.8
c56.4404 0 102.4 -45.96 102.4 -102.399c0 -56.4404 -45.96 -102.4 -102.4 -102.4c-56.4395 0 -102.399 45.96 -102.399 102.4c0 56.4395 45.96 102.399 102.399 102.399zM409.6 120.32c-45.3594 0 -81.9199 -36.5605 -81.9199 -81.9199
c0 -45.3604 36.5605 -81.9199 81.9199 -81.9199c45.3604 0 81.9199 36.5596 81.9199 81.9199c0 45.3594 -36.5596 81.9199 -81.9199 81.9199zM399.36 99.8398h20.4795v-66.5596l-45.0801 -33.7998l-12.2402 16.3994l36.8408 27.6396v56.3203z" />
    <glyph glyph-name="subway" unicode="&#xf121;" 
d="M153.6 417.28h204.801c39.1992 0 71.6797 -30.6807 71.6797 -68.7998v-21.1201c0.280273 -1.36035 0.280273 -2.80078 0 -4.16016v-149.44c0.280273 -1.35938 0.280273 -2.7998 0 -4.16016v-93.1191c0 -30.7607 -21.1602 -56.7607 -49.9199 -65.6006l36.7998 -36.7998
c4.08008 -4.08008 4.08008 -10.6396 0 -14.7197s-10.6396 -4.08008 -14.7197 0l-48.3203 48.3193h-195.84l-48.3203 -48.3193c-4.08008 -4.08008 -10.6396 -4.08008 -14.7197 0s-4.08008 10.6396 0 14.7197l36.7998 36.7998
c-28.7598 8.83984 -49.9199 34.8398 -49.9199 65.6006v90.8799c-1.36035 2.83984 -1.36035 6.12012 0 8.95996v144.64c-1.36035 2.83984 -1.36035 6.12012 0 8.95996v18.5605c0 38.1191 32.4805 68.7998 71.6797 68.7998zM153.6 396.8
c-28.6396 0 -51.1992 -21.8398 -51.1992 -48.3193v-13.1201h151.68c0.320312 0.120117 0.639648 0.239258 0.959961 0.319336c1.08008 0.0800781 2.16016 -0.0400391 3.2002 -0.319336h151.359v13.1201c0 26.4795 -22.5596 48.3193 -51.1992 48.3193h-204.801zM171.2 376.32
h0.959961h0.959961h0.959961h163.84c3.67969 0.0400391 7.12012 -1.87988 9 -5.08008c1.83984 -3.2002 1.83984 -7.12012 0 -10.3203c-1.87988 -3.2002 -5.32031 -5.12012 -9 -5.08008h-163.84c-5.63965 -0.799805 -10.8799 3.16016 -11.6797 8.7998
c-0.800781 5.64062 3.15918 10.8799 8.7998 11.6807zM102.4 314.88v-133.12h143.359v133.12h-143.359zM266.24 314.88v-133.12h143.359v133.12h-143.359zM102.4 161.28v-84.7998c0 -26.4805 22.5596 -48.3203 51.1992 -48.3203h0.320312h202.561
c1.15918 0.200195 2.35938 0.200195 3.51953 0h0.320312c27.7197 0.959961 49.2793 22.4395 49.2793 48.3203v84.7998h-307.199zM163.84 140.8c22.5205 0 40.96 -18.4395 40.96 -40.96c0 -22.5195 -18.4395 -40.96 -40.96 -40.96c-22.5195 0 -40.96 18.4404 -40.96 40.96
c0 22.5205 18.4404 40.96 40.96 40.96zM348.16 140.8c22.5195 0 40.96 -18.4395 40.96 -40.96c0 -22.5195 -18.4404 -40.96 -40.96 -40.96c-22.5205 0 -40.96 18.4404 -40.96 40.96c0 22.5205 18.4395 40.96 40.96 40.96zM163.84 120.32
c-11.4395 0 -20.4795 -9.04004 -20.4795 -20.4805c0 -11.4395 9.04004 -20.4795 20.4795 -20.4795c11.4404 0 20.4805 9.04004 20.4805 20.4795c0 11.4404 -9.04004 20.4805 -20.4805 20.4805zM348.16 120.32c-11.4404 0 -20.4805 -9.04004 -20.4805 -20.4805
c0 -11.4395 9.04004 -20.4795 20.4805 -20.4795c11.4395 0 20.4795 9.04004 20.4795 20.4795c0 11.4404 -9.04004 20.4805 -20.4795 20.4805z" />
    <glyph glyph-name="expand-arrow" unicode="&#xf10f;" 
d="M460.68 304.8c4.24023 0.0800781 8.08008 -2.43945 9.7207 -6.31934c1.59961 -3.88086 0.679688 -8.40039 -2.36035 -11.3203l-204.8 -204.8c-4 -4 -10.4805 -4 -14.4805 0l-204.8 204.8c-3 2.91992 -3.91992 7.32031 -2.36035 11.2002
c1.60059 3.83984 5.32031 6.35938 9.52051 6.39941c2.75977 -0.0400391 5.39941 -1.12012 7.32031 -3.12012l197.56 -197.56l197.56 197.56c1.88086 1.95996 4.44043 3.08008 7.12012 3.16016z" />
    <glyph glyph-name="multiply-filled" unicode="&#xf16e;" 
d="M154.88 322.24l101.76 -101.12l101.761 101.12l28.7998 -29.1201l-101.44 -101.12l101.44 -101.12l-28.7998 -29.1201l-101.761 101.12l-101.76 -101.12l-29.1201 29.1201l101.76 101.12l-101.76 101.12z" />
    <glyph glyph-name="right" unicode="&#xf169;" 
d="M305.6 313.92h0.959961c3.12012 0.240234 6.2002 -0.919922 8.32031 -3.2002l111.68 -111.359l7.04004 -7.36035l-7.04004 -7.36035l-111.68 -111.359c-2.47949 -3.04004 -6.43945 -4.44043 -10.2803 -3.56055c-3.7998 0.879883 -6.7998 3.87988 -7.67969 7.68066
c-0.879883 3.83984 0.520508 7.7998 3.56055 10.2793l94.0791 94.0801h-302.399c-5.64062 -0.279297 -10.4404 4.12012 -10.7197 9.75977c-0.280273 5.64062 4.11914 10.4404 9.75977 10.7207h0.959961h302.399l-94.0791 94.0801
c-2.84082 2.63965 -3.96094 6.63965 -2.88086 10.3994c1.08008 3.7207 4.16016 6.52051 8 7.2002z" />
    <glyph glyph-name="chevron-left-filled" unicode="&#xf102;" 
d="M329.08 416.64c2.75977 0.0400391 5.43945 -1.04004 7.40039 -3.04004l61.1592 -61.6797c4 -4 3.95996 -10.4795 -0.0400391 -14.4795l-146.96 -145.761l145.761 -146.92c4 -4.04004 3.95996 -10.5195 -0.0800781 -14.5195l-61.6807 -61.1602
c-4 -4 -10.4795 -3.95996 -14.4795 0.0400391l-214.16 215.92c-4 4 -3.95996 10.4795 0.0800781 14.4795l215.88 214.16c1.91992 1.87988 4.44043 2.95996 7.12012 2.95996z" />
    <glyph glyph-name="circled-play" unicode="&#xf144;" 
d="M256 427.52c129.96 0 235.52 -105.56 235.52 -235.52s-105.56 -235.52 -235.52 -235.52s-235.52 105.56 -235.52 235.52s105.56 235.52 235.52 235.52zM256 407.04c-118.88 0 -215.04 -96.1602 -215.04 -215.04s96.1602 -215.04 215.04 -215.04
s215.04 96.1602 215.04 215.04s-96.1602 215.04 -215.04 215.04zM184.32 312.32l15.3594 -8.95996l174.08 -102.4l15.04 -8.95996l-15.04 -8.95996l-174.08 -102.4l-15.3594 -8.95996v240.641zM204.8 276.48v-168.961l143.36 84.4805z" />
    <glyph glyph-name="back" unicode="&#xf110;" 
d="M358.2 407.12c4.24023 0.160156 8.08008 -2.32031 9.71973 -6.24023c1.63965 -3.87988 0.759766 -8.36035 -2.28027 -11.3203l-197.56 -197.56l197.56 -197.56c2.68066 -2.56055 3.76074 -6.40039 2.80078 -9.95996
c-0.920898 -3.60059 -3.7207 -6.40039 -7.32031 -7.32031c-3.56055 -0.959961 -7.40039 0.120117 -9.95996 2.7998l-204.8 204.8c-4 4 -4 10.4805 0 14.4805l204.8 204.8c1.83984 1.91992 4.35938 3.04004 7.04004 3.08008z" />
    <glyph glyph-name="sort-down-filled" unicode="&#xf109;" 
d="M40.96 273.92h430.08l-215.04 -225.28z" />
    <glyph glyph-name="cancel" unicode="&#xf16b;" 
d="M256 417.28c124.28 0 225.28 -101 225.28 -225.28s-101 -225.28 -225.28 -225.28s-225.28 101 -225.28 225.28s101 225.28 225.28 225.28zM256 396.8c-113.24 0 -204.8 -91.5596 -204.8 -204.8s91.5596 -204.8 204.8 -204.8s204.8 91.5596 204.8 204.8
s-91.5596 204.8 -204.8 204.8zM168 289.6c3.12012 0.240234 6.2002 -0.919922 8.32031 -3.19922l79.6797 -79.6807l79.6797 79.6807c1.64062 1.59961 3.80078 2.63965 6.08008 2.87988c4.44043 0.719727 8.87988 -1.52051 10.8398 -5.60059
c2 -4.04004 1.12012 -8.91992 -2.19922 -12l-79.6807 -79.6797l79.6807 -79.6797c4.08008 -4.08008 4.08008 -10.6406 0 -14.7207s-10.6406 -4.08008 -14.7207 0l-79.6797 79.6807l-79.6797 -79.6807c-4.08008 -4.08008 -10.6406 -4.08008 -14.7207 0
s-4.08008 10.6406 0 14.7207l79.6807 79.6797l-79.6807 79.6797c-2.83984 2.64062 -3.95996 6.64062 -2.87988 10.4004c1.08008 3.71973 4.16016 6.51953 8 7.2002c0.400391 0.120117 0.839844 0.239258 1.28027 0.319336z" />
    <glyph glyph-name="down-button" unicode="&#xf159;" 
d="M256 427.52c129.96 0 235.52 -105.56 235.52 -235.52s-105.56 -235.52 -235.52 -235.52s-235.52 105.56 -235.52 235.52s105.56 235.52 235.52 235.52zM256 407.04c-118.88 0 -215.04 -96.1602 -215.04 -215.04s96.1602 -215.04 215.04 -215.04
s215.04 96.1602 215.04 215.04s-96.1602 215.04 -215.04 215.04zM152.64 233.28c3.12012 0.239258 6.2002 -0.919922 8.32031 -3.2002l95.04 -95.04l95.04 95.04c4.08008 4.08008 10.6396 4.08008 14.7197 0s4.08008 -10.6396 0 -14.7197l-102.399 -102.4
c-1.91992 -2 -4.60059 -3.12012 -7.36035 -3.12012s-5.44043 1.12012 -7.36035 3.12012l-102.399 102.4c-2.83984 2.63965 -3.95996 6.63965 -2.87988 10.3994c1.08008 3.7207 4.15918 6.52051 8 7.2002c0.399414 0.120117 0.839844 0.240234 1.2793 0.320312z" />
    <glyph glyph-name="steam-engine" unicode="&#xf122;" 
d="M8.32031 437.76h0.959961h0.959961h184.319c3.84082 0.0800781 7.36035 -2 9.2002 -5.35938c1.7998 -3.36035 1.60059 -7.48047 -0.55957 -10.6406l-18.8799 -28.1602v-140.159h102.399v78.7197l-18.8799 28.1602c-2.7998 4.12012 -2.28027 9.63965 1.28027 13.1201
l20.4795 20.4795c1.48047 1.48047 3.36035 2.52051 5.44043 2.87988h0.959961h0.959961h81.9199c2.71973 0.0800781 5.40039 -0.959961 7.36035 -2.87988l20.4795 -20.4795c3.56055 -3.48047 4.08008 -9 1.28027 -13.1201l-18.8799 -28.1602v-79.04
c56.8398 -2.2002 102.399 -48.8799 102.399 -106.24v-1.91992c0 -21.5195 -7.59961 -41.3604 -18.8799 -58.2402l35.8408 -30.3994c3.19922 -2.80078 4.31934 -7.28027 2.7998 -11.2803c-1.48047 -3.95996 -5.28027 -6.59961 -9.52051 -6.63965h-72.3193
c-5.12012 -51.6006 -48.8408 -92.1602 -101.761 -92.1602c-40.96 0 -75.7598 24.4395 -92.1602 58.2402c-16.3994 -34.8008 -51.1992 -58.2402 -92.1592 -58.2402c-52.9199 0 -96.6406 40.5596 -101.761 92.1602h-31.3594c-5.64062 0 -10.2402 4.59961 -10.2402 10.2393
v347.2v0.959961v0.959961v29.7598c-0.0800781 5 3.44043 9.32031 8.32031 10.2402zM20.4805 417.28v-10.2402h147.84l7.04004 10.2402h-154.88zM20.4805 386.56v-133.119h143.359v133.119h-143.359zM301.44 376.32l-11.5205 -11.5205l12.7998 -19.2002h70.4004
l12.7998 19.2002l-11.5195 11.5205h-72.96zM307.2 325.12v-10.2402h61.4395v10.2402h-61.4395zM307.2 294.4v-40.96h61.4395v40.96h-61.4395zM20.4805 232.96v-174.08h21.1191c5.12012 51.6006 48.8408 92.1602 101.761 92.1602c40.96 0 75.7598 -24.4404 92.1592 -58.2402
c16.4004 34.7998 51.2002 58.2402 92.1602 58.2402c52.9199 0 96.6406 -40.5596 101.761 -92.1602h44.7998l-21.1201 17.9199c-4.12012 3.60059 -4.67969 9.7998 -1.28027 14.0801c11.8398 14.5605 19.2002 34.04 19.2002 54.0801v1.91992
c0 47.7197 -38.3604 86.0801 -86.0801 86.0801h-364.479zM143.36 130.56c-44.2803 0 -80.7207 -35.6396 -81.9199 -79.6797c0.279297 -1.36035 0.279297 -2.7998 0 -4.16016c1.04004 -44.1602 37.5195 -80 81.9199 -80c33.7998 0 63.5596 21.5205 75.8398 51.2002h32.6396
c12.2803 -29.6797 42.04 -51.2002 75.8398 -51.2002c45.04 0 80.96 36.8799 80.96 81.9199s-36.8799 81.9199 -81.9199 81.9199c-41.5596 0 -76.1602 -31.4395 -81.2793 -71.6797h21.7598c4.87988 29 30.1201 51.2002 60.4795 51.2002
c33.8008 0 62.4004 -27.6396 62.4004 -61.4404c0 -33.7998 -27.6396 -61.4395 -61.4404 -61.4395c-22.5195 0 -42.8799 12.2803 -53.1201 30.7197h26.5605c7.16016 -6.16016 16.3203 -10.2402 26.5596 -10.2402c22.5205 0 40.96 18.4404 40.96 40.96
c0 22.5205 -18.4395 40.96 -40.96 40.96c-19 0 -34.7998 -13.0801 -39.3594 -30.7197h20.7998c3.55957 6.12012 10.04 10.2402 17.5996 10.2402c11.3203 0 20.4805 -9.16016 20.4805 -20.4805c0 -11.3193 -9.16016 -20.4795 -20.4805 -20.4795
c-7.55957 0 -14.04 4.12012 -17.5996 10.2402h-149.12c-3.55957 -6.12012 -10.04 -10.2402 -17.5996 -10.2402c-11.3203 0 -20.4805 9.16016 -20.4805 20.4795c0 11.3203 9.16016 20.4805 20.4805 20.4805c7.55957 0 14.04 -4.12012 17.5996 -10.2402h21.7598
c-4.55957 17.6396 -20.3594 30.7197 -39.3594 30.7197c-22.5205 0 -40.96 -18.4395 -40.96 -40.96c0 -22.5195 18.4395 -40.96 40.96 -40.96c10.2393 0 19.3193 4.08008 27.5195 10.2402h26.8799c-11.2793 -18.4395 -30.9199 -30.7197 -53.4395 -30.7197
c-33.8008 0 -61.4404 27.6396 -61.4404 61.4395c0 33.8008 27.6396 61.4404 61.4404 61.4404c30.3594 0 55.5996 -22.2002 60.4795 -51.2002h19.8398c-5.12012 40.2402 -39.7197 71.6797 -81.2793 71.6797z" />
    <glyph glyph-name="price-tag" unicode="&#xf136;" 
d="M293.12 427.52c3.47949 0.0400391 6.91992 0 10.2402 0h152.319c19.6807 0 35.8398 -16.1592 35.8398 -35.8398v-152.319c0 -6.80078 0.280273 -13.7607 -0.639648 -20.8008s-3.36035 -14.8799 -9.28027 -20.7998l-232.64 -232.64
c-11.4795 -11.4805 -30.4404 -11.4805 -41.9199 0l-177.92 177.92c-11.4805 11.4795 -11.4805 30.4404 0 41.9199l232.64 232.64c5.95996 5.95996 13.7207 8.36035 20.7998 9.28027c3.56055 0.44043 7.08008 0.600586 10.5605 0.639648zM293.44 407.04
c-3 -0.0800781 -5.64062 -0.320312 -8 -0.639648c-4.7207 -0.600586 -7.36035 -1.60059 -8.95996 -3.2002l-232.961 -232.641c-3.63965 -3.63965 -3.63965 -9.47949 0 -13.1191l176.641 -176.32l1.28027 -1.60059c3.63965 -3.63965 9.47949 -3.63965 13.1191 0
l232.641 232.961c1.63965 1.63965 2.59961 3.95996 3.2002 8.63965c0.599609 4.67969 0.639648 11.1201 0.639648 18.2402v152.319c0 8.60059 -6.75977 15.3604 -15.3604 15.3604h-152.319c-3.48047 0 -6.91992 0.0800781 -9.91992 0zM399.36 376.32
c22.5195 0 40.96 -18.4404 40.96 -40.96c0 -22.5205 -18.4404 -40.96 -40.96 -40.96c-22.5205 0 -40.96 18.4395 -40.96 40.96c0 22.5195 18.4395 40.96 40.96 40.96zM399.36 355.84c-11.4404 0 -20.4805 -9.04004 -20.4805 -20.4795
c0 -11.4404 9.04004 -20.4805 20.4805 -20.4805c11.4395 0 20.4795 9.04004 20.4795 20.4805c0 11.4395 -9.04004 20.4795 -20.4795 20.4795z" />
    <glyph glyph-name="calendar" unicode="&#xf129;" 
d="M122.88 448h20.4805c11.1992 0 20.4795 -9.28027 20.4795 -20.4805v-20.4795h184.32v20.4795c0 11.2002 9.28027 20.4805 20.4795 20.4805h20.4805c11.2002 0 20.4795 -9.28027 20.4795 -20.4805v-20.4795h61.4404c5.36035 0 10.7998 -1.95996 14.6797 -5.83984
c3.83984 -3.83984 5.7998 -9.28027 5.7998 -14.6406v-409.6c0 -5.36035 -1.95996 -10.7998 -5.7998 -14.6797c-3.87988 -3.83984 -9.31934 -5.7998 -14.6797 -5.7998h-430.08c-5.36035 0 -10.7998 1.95996 -14.6396 5.7998
c-3.87988 3.87988 -5.83984 9.31934 -5.83984 14.6797v409.6c0 5.36035 1.95996 10.8008 5.83984 14.6406c3.83984 3.87988 9.2793 5.83984 14.6396 5.83984h61.4404v20.4795c0 11.2002 9.2793 20.4805 20.4795 20.4805zM122.88 427.52v-61.4395h20.4805v61.4395h-20.4805z
M368.64 427.52v-61.4395h20.4805v61.4395h-20.4805zM40.96 386.56v-71.6797h430.08v71.6797h-61.4404v-20.4795c0 -11.2002 -9.2793 -20.4805 -20.4795 -20.4805h-20.4805c-11.1992 0 -20.4795 9.28027 -20.4795 20.4805v20.4795h-184.32v-20.4795
c0 -11.2002 -9.28027 -20.4805 -20.4795 -20.4805h-20.4805c-11.2002 0 -20.4795 9.28027 -20.4795 20.4805v20.4795h-61.4404zM40.96 294.4v-317.44h430.08v317.44h-430.08zM102.4 253.44h307.199v-235.521h-307.199v235.521zM122.88 232.96v-51.2002h51.2002v51.2002
h-51.2002zM194.56 232.96v-51.2002h51.2002v51.2002h-51.2002zM266.24 232.96v-51.2002h51.2002v51.2002h-51.2002zM337.92 232.96v-51.2002h51.2002v51.2002h-51.2002zM122.88 161.28v-51.2002h51.2002v51.2002h-51.2002zM194.56 161.28v-51.2002h51.2002v51.2002h-51.2002
zM266.24 161.28v-51.2002h51.2002v51.2002h-51.2002zM337.92 161.28v-51.2002h51.2002v51.2002h-51.2002zM122.88 89.5996v-51.1992h51.2002v51.1992h-51.2002zM194.56 89.5996v-51.1992h51.2002v51.1992h-51.2002zM266.24 89.5996v-51.1992h51.2002v51.1992h-51.2002z
M337.92 89.5996v-51.1992h51.2002v51.1992h-51.2002z" />
    <glyph glyph-name="message" unicode="&#xf153;" 
d="M0 376.32h512v-368.641h-512v368.641zM20.4805 355.84v-25.5996c3 -2.64062 91.8799 -80.4805 150.399 -131.521c19.7197 -17.2002 47.0801 -40.8398 50.8799 -44.1602c13.2803 -11.5596 26.9199 -13.7598 34.2402 -13.7598c7.36035 0 20.96 2.2002 34.2402 13.7598
l0.959961 0.959961c16.7598 14.6006 196.319 171.24 200.319 174.721v25.5996h-471.039zM20.4805 303.04v-223.36l134.399 106.24c-53.6396 46.7998 -116.64 101.64 -134.399 117.12zM491.52 303.04c-17.7598 -15.4805 -80.7598 -70.3203 -134.399 -117.12l134.399 -106.24
v223.36zM170.56 172.16l-150.079 -118.4v-25.5996h471.039v25.5996l-149.76 118.4c-12.5596 -10.96 -35.2002 -30.4805 -38.0801 -32.96c-17.3994 -15.1602 -35.96 -18.8799 -47.6797 -18.8799c-11.6396 0 -30.04 3.67969 -47.3604 18.5596l-0.319336 0.320312
c-2.83984 2.47949 -25.3203 22.1201 -37.7607 32.96z" />
    <glyph glyph-name="chevron-left" unicode="&#xf103;" 
d="M329.08 416.64c2.75977 0.0400391 5.43945 -1.04004 7.40039 -3.04004l61.1592 -61.6797c4 -4 3.95996 -10.4795 -0.0400391 -14.4795l-146.96 -145.761l145.761 -146.92c4 -4.04004 3.95996 -10.5195 -0.0800781 -14.5195l-61.6807 -61.1602
c-4 -4 -10.4795 -3.95996 -14.4795 0.0400391l-214.16 215.92c-4 4 -3.95996 10.4795 0.0800781 14.4795l215.88 214.16c1.91992 1.87988 4.44043 2.95996 7.12012 2.95996zM329.12 391.92l-201.36 -199.72l199.721 -201.36l47.1592 46.7598l-145.76 146.92
c-4 4.04004 -3.95996 10.5205 0.0800781 14.5205l146.92 145.76z" />
    <glyph glyph-name="price-tag-filled" unicode="&#xf137;" 
d="M491.48 239.32l0.0390625 -3.28027c0.0400391 -13.8398 0.120117 -28.2002 -9.87988 -38.1602l-232.72 -232.72c-5.55957 -5.60059 -13.04 -8.67969 -20.9199 -8.67969c-7.91992 0 -15.3604 3.0791 -20.9199 8.67969l-177.92 177.92
c-5.60059 5.55957 -8.67969 13 -8.67969 20.9199s3.0791 15.3604 8.67969 20.9199l232.72 232.72c9.12012 9.12012 21.7598 9.87988 35.04 9.87988l6.44043 -0.0390625l152.319 0.0390625c19.7607 0 35.8398 -16.0791 35.8398 -35.8398zM399.36 304.64
c16.96 0 30.7197 13.7607 30.7197 30.7207s-13.7598 30.7197 -30.7197 30.7197s-30.7207 -13.7598 -30.7207 -30.7197s13.7607 -30.7207 30.7207 -30.7207z" />
    <glyph glyph-name="clock" unicode="&#xf101;" 
d="M256 448c141.28 0 256 -114.72 256 -256s-114.72 -256 -256 -256s-256 114.72 -256 256s114.72 256 256 256zM256 427.52c-130.2 0 -235.52 -105.319 -235.52 -235.52s105.319 -235.52 235.52 -235.52s235.52 105.319 235.52 235.52s-105.319 235.52 -235.52 235.52z
M255.04 397.12c2.91992 0.280273 5.83984 -0.719727 8 -2.75977c2.12012 -2 3.32031 -4.84082 3.2002 -7.80078v-165.76c11.8799 -4.24023 20.4795 -15.4795 20.4795 -28.7998c0 -16.96 -13.7598 -30.7197 -30.7197 -30.7197c-4.63965 0 -8.83984 1.35938 -12.7998 3.2002
l-61.7598 -61.7607c-4.08008 -4.08008 -10.6406 -4.08008 -14.7207 0s-4.08008 10.6406 0 14.7207l61.7607 61.7598c-1.84082 3.95996 -3.2002 8.16016 -3.2002 12.7998c0 13.3203 8.59961 24.5596 20.4795 28.7998v165.76c-0.120117 4.88086 3.24023 9.16016 8 10.2402
c0.400391 0.120117 0.839844 0.240234 1.28027 0.320312z" />
    <glyph glyph-name="back-to" unicode="&#xf15a;" 
d="M256 427.52c129.96 0 235.52 -105.56 235.52 -235.52s-105.56 -235.52 -235.52 -235.52s-235.52 105.56 -235.52 235.52s105.56 235.52 235.52 235.52zM256 407.04c-118.88 0 -215.04 -96.1602 -215.04 -215.04s96.1602 -215.04 215.04 -215.04
s215.04 96.1602 215.04 215.04s-96.1602 215.04 -215.04 215.04zM285.44 304.64c4.43945 0.720703 8.87988 -1.51953 10.8398 -5.59961c2 -4.04004 1.12012 -8.91992 -2.2002 -12l-95.04 -95.04l95.04 -95.04c4.08008 -4.08008 4.08008 -10.6396 0 -14.7197
s-10.6396 -4.08008 -14.7197 0l-102.4 102.399c-2 1.91992 -3.12012 4.60059 -3.12012 7.36035s1.12012 5.44043 3.12012 7.36035l102.4 102.399c1.63965 1.60059 3.7998 2.64062 6.08008 2.87988z" />
    <glyph glyph-name="label" unicode="&#xf184;" 
d="M51.2002 335.36h301.8c12.8398 0 25.2402 -4.84082 34.6797 -13.5205l0.44043 -0.399414l94.8799 -108.2l-0.480469 0.479492c11.9209 -11.9199 11.9209 -31.5195 0 -43.4395l0.44043 0.479492l-94.8398 -108.2l-0.44043 -0.399414
c-9.43945 -8.71973 -21.8398 -13.5205 -34.6797 -13.5205h-301.8c-16.8398 0 -30.7197 13.8799 -30.7197 30.7207v225.279c0 16.8408 13.8799 30.7207 30.7197 30.7207zM51.2002 314.88c-5.7998 0 -10.2402 -4.43945 -10.2402 -10.2402v-225.279
c0 -5.76074 4.48047 -10.2402 10.2402 -10.2402h301.8c7.67969 0 15.04 2.91992 20.7197 8.08008l94.0801 107.319l0.240234 0.240234c4.08008 4.08008 4.08008 10.4004 0 14.4805l-0.240234 0.240234l-94.0801 107.359c-5.67969 5.12012 -13.04 8.04004 -20.7197 8.04004
h-301.8zM378.88 232.96c22.5205 0 40.96 -18.4404 40.96 -40.96s-18.4395 -40.96 -40.96 -40.96c-22.5195 0 -40.96 18.4404 -40.96 40.96s18.4404 40.96 40.96 40.96zM378.88 212.48c-11.4395 0 -20.4795 -9.04004 -20.4795 -20.4805s9.04004 -20.4805 20.4795 -20.4805
c11.4404 0 20.4805 9.04004 20.4805 20.4805s-9.04004 20.4805 -20.4805 20.4805z" />
    <glyph glyph-name="increase" unicode="&#xf11b;" 
d="M399.36 448h112.64v-112.64h-20.4805v77.4395l-136 -136l-7.35938 -7.04004l-7.36035 7.04004l-33.5996 33.6006l-115.521 -115.521l-7.35938 -7.04004l-7.36035 7.04004l-33.5996 33.6006l-125.761 -125.761l-14.7197 14.7207l133.12 133.119l7.36035 7.04004
l7.35938 -7.04004l33.6006 -33.5996l115.52 115.521l7.36035 7.03906l7.35938 -7.03906l33.6006 -33.6006l128.64 128.64h-77.4395v20.4805zM430.08 304.64h20.4795v-368.64h-20.4795v368.64zM491.52 294.4h20.4805v-358.4h-20.4805v358.4zM307.2 243.2h20.4795v-307.2
h-20.4795v307.2zM368.64 243.2h20.4805v-307.2h-20.4805v307.2zM245.76 202.24h20.4805v-266.24h-20.4805v266.24zM122.88 161.28h20.4805v-225.28h-20.4805v225.28zM184.32 140.8h20.4795v-204.8h-20.4795v204.8zM61.4404 99.8398h20.4795v-163.84h-20.4795v163.84z
M0 58.8799h20.4805v-122.88h-20.4805v122.88z" />
    <glyph glyph-name="user-filled" unicode="&#xf142;" 
d="M316.76 114.92c17.9199 -48.2402 138.44 -34.6797 144.04 -127.72h-389.12c5.60059 93.04 126.641 79.4795 144.561 127.72c1.51953 16.5205 0.959961 28.04 0.959961 43.1201c-7.52051 3.91992 -21.4404 28.9199 -23.6807 50.04
c-5.87988 0.479492 -15.1191 6.2002 -17.8799 28.8398c-1.43945 12.1602 4.36035 19 7.91992 21.1602c-19.8799 76.4795 -8.95996 143.28 81.7207 144.96c22.6396 0 40.0801 -6.04004 46.9199 -18c66.1602 -9.2002 46.2803 -98.2002 36.7197 -126.96
c3.56055 -2.16016 9.36035 -9 7.91992 -21.1602c-2.71973 -22.6396 -12 -28.3604 -17.8799 -28.8398c-2.24023 -21.1201 -15.6396 -46.1201 -23.1201 -50.04c0 -15.0801 -0.599609 -26.5996 0.919922 -43.1201z" />
    <glyph glyph-name="shopping-cart-2" unicode="&#xf176;" 
d="M20.4805 427.52h68.1592c37.5205 0 49.3604 -21.6797 56.3203 -45.1191l21.7598 -88h314.561c3.31934 0 6.43945 -1.7207 8.31934 -4.48047c1.88086 -2.75977 2.48047 -6.16016 1.28027 -9.28027l-73.5996 -194.56
c-1.48047 -3.95996 -5.36035 -6.71973 -9.60059 -6.71973h-187.84l7.04004 -28.1602c5.87988 -22.2402 8.87988 -33.2803 36.4805 -33.2803h156.479c5.64062 0 10.2402 -4.59961 10.2402 -10.2402c0 -1.16016 -0.280273 -2.16016 -0.639648 -3.19922
c6.67969 -7.28027 10.8799 -16.8809 10.8799 -27.5205c0 -22.5996 -18.3604 -40.96 -40.96 -40.96c-22.6006 0 -40.96 18.3604 -40.96 40.96c0 7.48047 2.23926 14.4404 5.75977 20.4805h-62.7197c3.51953 -6.04004 5.75977 -13 5.75977 -20.4805
c0 -22.5996 -18.3604 -40.96 -40.96 -40.96c-22.6006 0 -40.96 18.3604 -40.96 40.96c0 9.87988 3.75977 18.8398 9.59961 25.9199c-18.5596 8.7998 -23.4795 27.04 -27.8398 43.5205l-81.9199 330.56c-6.91992 23.2402 -15.1201 30.0801 -36.4805 30.0801h-47.6797
c0 -11.3203 -9.16016 -20.4805 -20.4795 -20.4805c-11.3203 0 -20.4805 9.16016 -20.4805 20.4805s9.16016 20.4795 20.4805 20.4795zM266.24 -2.55957c-11.2803 0 -20.4805 -9.2002 -20.4805 -20.4805s9.2002 -20.4795 20.4805 -20.4795
c11.2793 0 20.4795 9.19922 20.4795 20.4795s-9.2002 20.4805 -20.4795 20.4805zM399.36 -2.55957c-11.2803 0 -20.4805 -9.2002 -20.4805 -20.4805s9.2002 -20.4795 20.4805 -20.4795c11.2793 0 20.4795 9.19922 20.4795 20.4795s-9.2002 20.4805 -20.4795 20.4805z" />
    <glyph glyph-name="exercise" unicode="&#xf11e;" 
d="M282.56 417.6c6.16016 -0.199219 12.4805 -2.08008 17.9209 -6.08008c0.319336 -0.239258 0.639648 -0.399414 0.959961 -0.639648c0.919922 -0.599609 19.1191 -12.5596 38.3994 -25.5996c9.87988 -6.68066 19.7998 -13.4004 27.5205 -18.8799
c3.83984 -2.7207 7.08008 -5.08008 9.59961 -7.04004c1.28027 -0.959961 2.24023 -2.04004 3.2002 -2.87988c0.759766 -0.680664 1.95996 -1.2002 3.2002 -3.2002c0.319336 -0.520508 0.239258 -0.120117 0.639648 -0.959961
c0.839844 -1.24023 17.6396 -26.4404 25.2803 -40.6406c3.08008 -5.47949 4.83984 -10.96 5.43945 -16.3193c1.08008 -1.52051 1.76074 -3.28027 1.91992 -5.12012l4.48047 -48.3203l52.4795 -2.87988h0.320312c6.48047 -0.480469 13.2402 0.200195 21.1201 -2.55957
c3.91992 -1.40039 8.28027 -4.16016 10.8799 -8.64062c2.59961 -4.47949 3.2002 -9.67969 2.87988 -15.04v-0.319336c-0.839844 -9.16016 -7.08008 -16.5605 -14.3994 -20.4805c-7.32031 -3.91992 -15.5605 -5.51953 -24.6406 -6.08008h-0.639648
c-13.5205 0 -85.4404 -4.16016 -85.4404 -4.16016c-0.639648 -0.0800781 -1.2793 -0.0800781 -1.91992 0c-6.04004 0.759766 -11.7197 3.83984 -15.3594 7.68066c-3.64062 3.83984 -5.36035 7.91992 -7.04004 11.8398
c-0.400391 0.719727 -0.720703 1.43945 -0.959961 2.23926l-5.44043 31.3604c-24.5596 -15.5996 -49 -31.1602 -56.3203 -35.8398c4.08008 -6.32031 13.04 -20.1201 26.8799 -41.9199c16.6006 -26.1602 33.6807 -53 38.7207 -62.4004v-0.319336
c6.24023 -11.4404 6.7998 -24.5205 0 -33.6006c-6.87988 -9.16016 -18.4805 -13.1201 -31.3604 -13.1201h-23.3604c-2.43945 -2.47949 -18.3193 -18.6396 -38.7197 -39.04c-21.9199 -21.9199 -45.4795 -45.3193 -55.04 -53.7598
c-10.7998 -9.71973 -19.5195 -15.6797 -28.7998 -18.2402c-9.28027 -2.55957 -19.4404 0.320312 -25.9199 6.08008c-0.360352 0.280273 -0.679688 0.600586 -0.959961 0.959961c-6 6.76074 -8.48047 16.1201 -7.04004 24.96
c1.44043 8.84082 6.12012 17.1201 13.1201 25.2803c11.7197 13.9199 33.96 37.0801 50.2402 53.7598h-48.6406c-10.9199 0 -19.8398 3.76074 -25.5996 9.91992c-5.75977 6.16016 -8 13.9199 -8 20.8008c0 7.15918 2.47949 14.8398 8.32031 20.4795
c5.83984 5.63965 14.1992 9.04004 24.3193 10.2402c11.04 1.24023 39.3604 1.71973 66.5605 2.24023c17.1992 0.319336 23.3193 0.199219 32.96 0.319336l-61.7607 90.8799c-0.239258 0.200195 -0.439453 0.400391 -0.639648 0.640625
c-9.28027 16.2402 -10.4395 32.2402 -4.7998 45.1201s16.3203 22.1201 28.1602 30.7197c0.120117 0.120117 0.200195 0.200195 0.319336 0.320312l73.6006 51.5195l-29.4404 23.04l-96.6396 -2.24023c-0.280273 -0.0400391 -0.679688 0.0400391 -0.959961 0
c-6.16016 -0.55957 -12.8398 0.160156 -19.5205 2.24023c-3.51953 1.08008 -7 2.59961 -10.2393 5.12012c-3.16016 2.44043 -5.91992 6.44043 -6.7207 11.5195c-0.0400391 0.160156 -0.279297 0.160156 -0.319336 0.320312c-1.44043 10.3203 4.2793 19.96 11.1992 24.96
c7 5.08008 15.1201 7.75977 22.7207 9.91992c0.519531 0.160156 1.04004 0.240234 1.59961 0.320312l104.96 11.2002c0.200195 0.0400391 0.44043 -0.0400391 0.640625 0c1.95996 0.279297 4.03906 0.399414 6.0791 0.319336zM455.68 417.28
c31.0801 0 56.3203 -25.2402 56.3203 -56.3203s-25.2402 -56.3203 -56.3203 -56.3203s-56.3193 25.2402 -56.3193 56.3203s25.2393 56.3203 56.3193 56.3203zM278.72 396.8l-104 -10.8799c-0.160156 -0.0400391 -0.160156 -0.280273 -0.319336 -0.320312
c-6.56055 -1.91992 -12.5205 -4.08008 -15.6807 -6.39941c-2.75977 -2 -3.04004 -2.68066 -2.87988 -4.48047c0.640625 -0.359375 1.44043 -0.839844 2.87988 -1.2793c3.76074 -1.16016 9.32031 -1.60059 12.1602 -1.28027h0.959961l101.44 2.24023
c2.31934 0 4.59961 -0.800781 6.39941 -2.24023l43.2002 -33.9199c2.48047 -2.04004 3.87988 -5.12012 3.71973 -8.32031c-0.119141 -3.2002 -1.71973 -6.16016 -4.35938 -8l-84.7998 -59.5195c-10.5605 -7.7207 -18.4004 -15.4004 -21.4404 -22.4004
c-3 -6.91992 -3.12012 -13.96 3.51953 -25.9199l0.320312 -0.320312c0.0800781 -0.120117 -0.0800781 -0.200195 0 -0.319336l72.3203 -105.921c2.12012 -3.11914 2.35938 -7.15918 0.599609 -10.4795c-1.71973 -3.36035 -5.16016 -5.48047 -8.91992 -5.52051
c0 0 -24.7598 -0.119141 -51.8398 -0.639648c-27.0801 -0.519531 -57.5596 -1.39941 -64.96 -2.24023c-7.28027 -0.839844 -10.9199 -2.95996 -12.4805 -4.47949c-1.55957 -1.52051 -1.91992 -2.67969 -1.91992 -5.75977c0 -2.32031 0.879883 -4.91992 2.56055 -6.7207
c1.67969 -1.7998 4.08008 -3.51953 10.5596 -3.51953h69.7598c0.920898 0.479492 1.88086 0.799805 2.88086 0.959961c1.95996 0.240234 3.95996 -0.0800781 5.75977 -0.959961h86.7197c8.63965 0 13.1602 2.71973 14.7197 4.7998
c1.56055 2.08008 2.56055 4.59961 -1.2793 11.5205v0.319336c-3.24023 6.08008 -21.4404 35.2402 -38.0801 61.4404c-16.6406 26.2002 -32.3203 50.5596 -32.3203 50.5596c-3 4.75977 -1.55957 11.0801 3.2002 14.0801c0 0 42.2402 26.8799 74.8799 47.6797
c1.51953 2.16016 3.7998 3.64062 6.40039 4.16016c11.2393 7.16016 25.2793 16.0801 28.1592 17.9199c4.28027 2.7207 6.84082 5.56055 7.68066 8.32031s0.759766 6.32031 -2.87988 12.7998c-6.48047 12.0801 -24.96 40.3203 -24.96 40.3203
c0.0800781 0 0.519531 -1.12012 0.319336 -0.959961c-0.399414 0.360352 -1.16016 1.12012 -2.23926 1.91992c-2.12012 1.63965 -5.24023 4.08008 -8.96094 6.71973c-7.47949 5.28027 -17.3594 11.9199 -27.1992 18.5605c-19.6406 13.2793 -39.04 25.9199 -39.04 25.9199
c-0.240234 0.200195 -0.44043 0.399414 -0.640625 0.639648c-2.63965 2.12012 -5.63965 2.60059 -9.59961 1.91992h-0.320312zM455.68 396.8c-20.1201 0 -35.8398 -15.7197 -35.8398 -35.8398s15.7197 -35.8398 35.8398 -35.8398s35.8398 15.7197 35.8398 35.8398
s-15.7197 35.8398 -35.8398 35.8398zM8.32031 325.12c0.639648 0.0400391 1.2793 0.0400391 1.91992 0h194.56c4.04004 0.599609 8.04004 -1.2002 10.2402 -4.63965c2.2002 -3.40039 2.2002 -7.80078 0 -11.2002c-2.2002 -3.44043 -6.2002 -5.24023 -10.2402 -4.64062
h-194.56c-5.24023 0.120117 -9.60059 4.16016 -10.0801 9.40039c-0.480469 5.2002 3 10 8.16016 11.0801zM8.32031 273.92c0.639648 0.0400391 1.2793 0.0400391 1.91992 0h143.359c4.04004 0.599609 8.04004 -1.2002 10.2402 -4.63965
c2.2002 -3.40039 2.2002 -7.7998 0 -11.2002c-2.2002 -3.44043 -6.2002 -5.24023 -10.2402 -4.63965h-143.359c-5.24023 0.119141 -9.60059 4.15918 -10.0801 9.39941c-0.480469 5.2002 3 10 8.16016 11.0801zM398.72 264
c-0.319336 -0.200195 -0.639648 -0.44043 -0.959961 -0.639648c-2.67969 -1.7207 -16.5996 -10.7207 -25.9199 -16.6406l6.71973 -38.7197c1 -2.12012 2.32031 -3.87988 2.88086 -4.48047c0.639648 -0.679688 0.919922 -1.03906 2.55957 -1.2793
c0.160156 -0.0400391 0.120117 0.0400391 0.320312 0c2.91992 0.160156 66.7598 4.12012 84.1602 4.16016h0.639648c6.91992 0.519531 12.5996 1.87988 15.6797 3.51953c2.95996 1.59961 3.32031 2.40039 3.52051 4.16016c0.160156 2.55957 -0.0400391 3.24023 0 3.2002
c-1.56055 0.55957 -8.04004 0.759766 -15.6807 1.2793h-0.319336l-61.1201 3.2002c-5.04004 0.280273 -9.12012 4.24023 -9.60059 9.28027zM8.32031 222.72c0.639648 0.0400391 1.2793 0.0400391 1.91992 0h143.359c4.04004 0.600586 8.04004 -1.2002 10.2402 -4.63965
c2.2002 -3.40039 2.2002 -7.7998 0 -11.2002c-2.2002 -3.43945 -6.2002 -5.24023 -10.2402 -4.63965h-143.359c-5.24023 0.120117 -9.60059 4.16016 -10.0801 9.39941c-0.480469 5.2002 3 10 8.16016 11.0801zM8.32031 171.52
c0.639648 0.0400391 1.2793 0.0400391 1.91992 0h184.319c4.04004 0.600586 8.04004 -1.19922 10.2402 -4.63965c2.2002 -3.39941 2.2002 -7.7998 0 -11.2002c-2.2002 -3.43945 -6.2002 -5.23926 -10.2402 -4.63965h-184.319
c-5.24023 0.120117 -9.60059 4.16016 -10.0801 9.40039c-0.480469 5.19922 3 10 8.16016 11.0791zM242.88 47.6797c-6.59961 -6.75977 -48.7598 -50.2393 -63.04 -67.1992c-5.32031 -6.2002 -7.71973 -11.6406 -8.32031 -15.3604
c-0.519531 -3.24023 0.0400391 -4.95996 1.60059 -7.04004c2.39941 -2.12012 2.7998 -2.59961 6.39941 -1.59961c3.76074 1.03906 10.8008 5.03906 20.4805 13.7598c7.83984 6.91992 32.5596 31.2793 54.4004 53.1201c12.7598 12.7598 16.2793 16.5195 24 24.3193h-35.5205z
" />
    <glyph glyph-name="logout-rounded-down" unicode="&#xf17b;" 
d="M256 427.52c129.95 0 235.52 -105.569 235.52 -235.52c0 -77.9297 -37.9434 -147.104 -96.3398 -189.96c-1.5332 -1.19824 -4.3584 -2.1709 -6.30469 -2.1709c-5.65332 0 -10.2412 4.58789 -10.2412 10.2412c0 2.96777 1.9834 6.74414 4.42578 8.42969
c53.3428 39.1465 87.9805 102.172 87.9805 173.46c0 118.882 -96.1582 215.04 -215.04 215.04s-215.04 -96.1582 -215.04 -215.04c0 -71.2881 34.6396 -134.324 87.9805 -173.46c2.44238 -1.68555 4.42578 -5.46191 4.42578 -8.42969
c0 -5.65332 -4.58789 -10.2412 -10.2412 -10.2412c-1.94629 0 -4.77148 0.972656 -6.30469 2.1709c-58.3984 42.8457 -96.3398 112.03 -96.3398 189.96c0 129.95 105.569 235.52 235.52 235.52zM255.84 222.86l0.160156 0.000976562
c5.65332 0 10.2412 -4.58789 10.2412 -10.2412l-0.000976562 -0.139648v-221.04l64.4395 64.4395c1.66895 1.73828 4.97852 3.14844 7.3877 3.14844c5.65332 0 10.2412 -4.58789 10.2412 -10.2412c0 -2.40918 -1.41113 -5.71875 -3.14844 -7.38672l-81 -81
c-1.69727 -2.23535 -5.35156 -4.0498 -8.1582 -4.0498c-2.79688 0 -6.44531 1.80469 -8.1416 4.0293l-81.0205 81.0205c-1.70996 1.66406 -3.09863 4.95215 -3.09863 7.33887c0 5.65137 4.58691 10.2393 10.2393 10.2412
c2.38672 -0.000976562 5.6748 -1.38965 7.33984 -3.10059l64.4395 -64.4395v221.04l-0.000976562 0.139648c0 5.56543 4.5166 10.1533 10.0811 10.2402z" />
    <glyph glyph-name="drag-list-down" unicode="&#xf132;" 
d="M20.4805 304.64h471.039v-20.4795h-471.039v20.4795zM20.4805 202.24h471.039v-20.4805h-471.039v20.4805zM20.4805 99.8398h471.039v-20.4795h-471.039v20.4795zM182.4 28.1602h0.959961h0.959961h143.359c4.2002 0.0800781 8.08008 -2.40039 9.68066 -6.28027
c1.63965 -3.87988 0.719727 -8.39941 -2.32031 -11.3203l-71.6797 -71.6797c-1.91992 -2 -4.60059 -3.12012 -7.36035 -3.12012s-5.44043 1.12012 -7.36035 3.12012l-71.6797 71.6797c-2.87988 2.68066 -3.95996 6.76074 -2.7998 10.5205
c1.16016 3.71973 4.35938 6.47949 8.24023 7.08008zM209.28 7.67969l46.7197 -46.7197l46.7197 46.7197h-93.4395z" />
    <glyph glyph-name="schedule" unicode="&#xf11c;" 
d="M143.36 448c79.2393 0 143.359 -64.1201 143.359 -143.36c0 -79.2393 -64.1201 -143.359 -143.359 -143.359c-79.2402 0 -143.36 64.1201 -143.36 143.359c0 35.2803 13.1602 67.0801 33.7197 92.1602h-20.3994c-3.68066 -0.0400391 -7.12012 1.87988 -9 5.08008
c-1.83984 3.2002 -1.83984 7.12012 0 10.3203c1.87988 3.2002 5.31934 5.12012 9 5.08008h58.3594v-58.3604c0.0400391 -3.67969 -1.87988 -7.12012 -5.08008 -9c-3.19922 -1.83984 -7.11914 -1.83984 -10.3193 0c-3.2002 1.87988 -5.12012 5.32031 -5.08008 9v26.7598
c-18.7998 -22.0801 -30.7197 -49.9199 -30.7197 -81.04c0 -68.2393 54.6396 -122.88 122.88 -122.88c68.2393 0 122.88 54.6406 122.88 122.88c0 68.2402 -54.6406 122.88 -122.88 122.88c-17.2803 0 -33.2002 -2.83984 -48.1201 -9.35938
c-3.36035 -1.60059 -7.36035 -1.24023 -10.3604 0.959961c-3.04004 2.16016 -4.63965 5.7998 -4.16016 9.51953c0.44043 3.7207 2.87988 6.87988 6.32031 8.24023c17.8398 7.83984 36.7598 11.1201 56.3203 11.1201zM389.12 448h20.4795
c11.2002 0 20.4805 -9.28027 20.4805 -20.4805v-20.4795h51.2002c11.8799 0 20.4795 -8.59961 20.4795 -20.4805v-409.6c0 -11.8799 -8.59961 -20.4795 -20.4795 -20.4795h-430.08c-11.8799 0 -20.4805 8.59961 -20.4805 20.4795v209
c6.40039 -6.04004 13.1602 -11.6797 20.4805 -16.6797v-192.32h430.08v317.44h-174.601c0.200195 3.39941 0.520508 6.75977 0.520508 10.2393c0 3.48047 -0.320312 6.84082 -0.520508 10.2402h174.601v71.6797h-51.2002v-20.4795
c0 -11.2002 -9.28027 -20.4805 -20.4805 -20.4805h-20.4795c-11.2002 0 -20.4805 9.28027 -20.4805 20.4805v20.4795h-83.5996c-4.16016 7.16016 -8.7998 14.04 -14 20.4805h97.5996v20.4795c0 11.2002 9.28027 20.4805 20.4805 20.4805zM389.12 427.52v-61.4395h20.4795
v61.4395h-20.4795zM143.2 396.96c2.75977 0.0400391 5.43945 -1.04004 7.39941 -3s3.04004 -4.63965 3 -7.40039v-76.7998l36.8408 -27.6396c4.55957 -3.40039 5.47949 -9.7998 2.0791 -14.3203c-3.39941 -4.55957 -9.7998 -5.47949 -14.3193 -2.08008l-39.7598 29.7998
c-1.80078 1 -3.28027 2.52051 -4.2002 4.36035c-1.08008 1.95996 -1.44043 4.2002 -1.12012 6.40039v80.2793c-0.0800781 5.64062 4.43945 10.2803 10.0801 10.4004zM298.88 253.44h120.96v-235.521h-307.2v125.88c6.68066 -1.28027 13.5205 -2.04004 20.4805 -2.47949
v-31.2402h51.2002v36.1201c7 1.7998 13.8799 3.95996 20.4795 6.63965v-42.7598h51.2002v71.6797h71.6797v51.2002h-37.2393c3.23926 6.59961 6.11914 13.4004 8.43945 20.4805zM348.16 232.96v-51.2002h51.2002v51.2002h-51.2002zM276.48 161.28v-51.2002h51.1992v51.2002
h-51.1992zM348.16 161.28v-51.2002h51.2002v51.2002h-51.2002zM133.12 89.5996v-51.1992h51.2002v51.1992h-51.2002zM204.8 89.5996v-51.1992h51.2002v51.1992h-51.2002zM276.48 89.5996v-51.1992h51.1992v51.1992h-51.1992zM348.16 89.5996v-51.1992h51.2002v51.1992
h-51.2002z" />
    <glyph glyph-name="beach-umbrella" unicode="&#xf114;" 
d="M254.72 448.32c2.95996 0.319336 5.95996 -0.640625 8.16016 -2.68066c2.2002 -2 3.44043 -4.87988 3.36035 -7.87988v-21.4395c40.2402 -2.87988 96.0801 -22.2402 145.6 -52.8008c53.6797 -33.1592 100.16 -79.5996 100.16 -134.72
c0 -31.3193 -26.5596 -57.2803 -59.5195 -57.2803c-15.1201 0 -29 6.2002 -39.6807 15.3604c-3.47949 3 -6.55957 6.28027 -9.28027 9.91992c-1.15918 -1.67969 -2.47949 -3.24023 -3.83984 -4.7998c-10.1602 -11.7197 -26.1992 -20.4805 -46.3994 -20.4805
c-16.6406 0 -31.2803 5.84082 -41.2803 16.6406c-2 2.16016 -3.83984 4.55957 -5.44043 7.04004c-3 -3.24023 -6.2793 -6.2002 -9.91992 -8.95996c-8.67969 -6.56055 -19.3193 -11.7207 -30.3994 -13.7598v-162.881c0 -0.879883 -0.120117 -1.71973 -0.320312 -2.55957
c33 -3.36035 57.5996 -21.7598 57.5996 -21.7598c4.60059 -3.36035 5.60059 -9.7998 2.24023 -14.4004c-3.35938 -4.59961 -9.7998 -5.59961 -14.3994 -2.24023c0 0 -25.7207 18.5605 -55.3604 18.5605s-55.3604 -18.5605 -55.3604 -18.5605
c-4.59961 -3.35938 -11.04 -2.35938 -14.3994 2.24023c-3.36035 4.60059 -2.36035 11.04 2.24023 14.4004c0 0 24.5996 18.3994 57.5996 21.7598c-0.200195 0.839844 -0.320312 1.67969 -0.320312 2.55957v162.881c-11.04 2 -21.6797 6.95996 -30.3994 13.4395
c-4.32031 3.2002 -8.48047 6.59961 -11.8408 10.5605c-1.11914 -1.52051 -2.23926 -3 -3.51953 -4.48047c-10.1602 -11.7197 -26.2002 -20.4805 -46.4004 -20.4805c-16.6396 0 -31.2793 5.84082 -41.2793 16.6406c-2 2.16016 -3.83984 4.55957 -5.44043 7.04004
c-2.2002 -2.68066 -4.71973 -5.36035 -7.36035 -7.68066c-10.5596 -9.35938 -24.5996 -16 -40 -16c-32.96 0 -59.5195 25.9609 -59.5195 57.2803c0 55.2402 47.0801 101.601 101.12 134.72c49.7598 30.5205 105.479 49.8809 144.64 52.8008v21.4395
c-0.120117 5.28027 3.7207 9.83984 8.95996 10.5605zM252.16 387.2c-3.75977 -5.08008 -7.95996 -11.6006 -12.4805 -21.4404c-10.9199 -23.7598 -21.9199 -63.3594 -24 -125.76c8.32031 -3.28027 23.8008 -8.95996 39.3604 -8.95996
c15.6396 0 32.3203 5.67969 41.2803 8.95996c-2.16016 57.96 -13.0801 97.2803 -24 122.24c-5.08008 11.5596 -9.60059 18.8799 -13.4404 24.6396c-2.2002 -0.639648 -4.55957 -0.519531 -6.71973 0.320312zM195.52 384.32
c-26.96 -8.76074 -56.2793 -21.3604 -83.5195 -38.0801c-46.5996 -28.5605 -84.1602 -66.7998 -90.5596 -105.92c6.63965 -2.95996 22.2793 -9.28027 33.9199 -9.28027c15.1592 0 42.8799 11.2002 42.8799 11.2002l0.319336 0.319336
c6.80078 58.0801 42.1602 100.681 76.8008 128.641c7.31934 5.91992 13.0801 8.39941 20.1592 13.1201zM283.2 384.32c2.71973 -4.87988 4.91992 -7.52051 7.67969 -13.7607c12.0801 -27.5596 23.7197 -70.1592 25.9199 -130.88
c7.48047 -3.16016 23 -8.63965 40.6406 -8.63965c14.0791 0 27.1191 3.59961 36.1592 6.71973c-4.67969 59.4805 -36.6797 98.04 -69.4395 122.88c-14.9199 11.3203 -28.7197 17.8799 -40.96 23.6807zM331.2 379.52c1.83984 -1.31934 3.28027 -1.47949 5.12012 -2.87988
c35.3193 -26.7998 71.2793 -70.0801 77.4395 -134.399h0.320312c0 0 24.7197 -11.2002 43.5195 -11.2002c14.5205 0 27.6406 6.08008 32.96 8.95996c-6.11914 39.2803 -42.96 77.6396 -89.2793 106.24c-22.4004 13.8398 -46.9199 24.7598 -70.0801 33.2793zM223.36 378.24
c-11.1602 -6.44043 -22.3604 -12.6807 -35.2002 -23.04c-32.7598 -26.4404 -64.3604 -64.8799 -69.4404 -117.76c8.32031 -2.95996 20.4004 -6.40039 35.8398 -6.40039c20.2402 0 34.2402 5.59961 40.6406 8.63965c2.08008 65.0801 13.6396 107.96 25.9199 134.721
c0.839844 1.7998 1.39941 2.19922 2.24023 3.83984zM96.96 219.84c-8.75977 -3.59961 -24.9199 -9.28027 -41.5996 -9.28027c-12.2402 0 -24.0801 3.56055 -32.96 7.04004c4.91992 -14.5996 19.1592 -25.5996 37.1191 -25.5996c9.16016 0 18.8809 4.36035 26.2402 10.8799
c6.08008 5.40039 10.04 12.04 11.2002 16.96zM415.04 219.52c1.04004 -5.67969 4.75977 -12.0391 10.8799 -17.2793c7.24023 -6.2002 17.1201 -10.2402 26.5605 -10.2402c17.6797 0 31.6797 10.6797 36.7998 24.96c-8.28027 -3.24023 -19.3203 -6.40039 -31.6807 -6.40039
c-18.1191 0 -33.8799 5.40039 -42.5596 8.95996zM296.32 217.92c-9.80078 -3.40039 -24.3604 -7.36035 -41.2803 -7.36035c-16.5596 0 -30.3203 3.7207 -39.6797 7.04004c1.08008 -3.75977 5.12012 -9.7998 12.1592 -15.04
c7.84082 -5.7998 18.3203 -10.0791 26.8809 -10.5596c0.199219 0.120117 0.439453 0.240234 0.639648 0.320312c0.639648 0.0800781 1.28027 0.0800781 1.91992 0c8.52051 0.319336 19.1602 4.51953 27.2002 10.5596c7.16016 5.40039 11.0801 11.7598 12.1602 15.04z
M319.36 217.28c1.63965 -6.12012 4.15918 -11.2402 7.67969 -15.04c5.87988 -6.36035 14.2402 -10.2402 26.2402 -10.2402c14.5996 0 24.3193 5.67969 31.04 13.4404c2.47949 2.83984 4.2793 6 5.75977 9.2793c-8.83984 -2.31934 -19.96 -4.16016 -32.6396 -4.16016
c-16.3203 0 -29 3.48047 -38.0801 6.7207zM191.04 216.32c-8.71973 -2.87988 -20.4004 -5.76074 -36.4805 -5.76074c-13.7598 0 -25.1992 2.08008 -33.9199 4.48047c1.60059 -5.12012 3.64062 -9.48047 6.7207 -12.7998c5.87988 -6.36035 14.2393 -10.2402 26.2393 -10.2402
c14.6006 0 24.3203 5.67969 31.04 13.4404c2.87988 3.31934 4.80078 7.04004 6.40039 10.8799zM102.4 28.1602c5.63965 0 10.2393 -4.60059 10.2393 -10.2402s-4.59961 -10.2402 -10.2393 -10.2402c-5.64062 0 -10.2402 4.60059 -10.2402 10.2402
s4.59961 10.2402 10.2402 10.2402zM163.84 28.1602c5.64062 0 10.2402 -4.60059 10.2402 -10.2402s-4.59961 -10.2402 -10.2402 -10.2402c-5.63965 0 -10.2402 4.60059 -10.2402 10.2402s4.60059 10.2402 10.2402 10.2402zM348.16 28.1602
c5.63965 0 10.2402 -4.60059 10.2402 -10.2402s-4.60059 -10.2402 -10.2402 -10.2402c-5.64062 0 -10.2402 4.60059 -10.2402 10.2402s4.59961 10.2402 10.2402 10.2402zM409.6 28.1602c5.64062 0 10.2402 -4.60059 10.2402 -10.2402s-4.59961 -10.2402 -10.2402 -10.2402
c-5.63965 0 -10.2393 4.60059 -10.2393 10.2402s4.59961 10.2402 10.2393 10.2402zM71.6797 -2.55957c5.64062 0 10.2402 -4.60059 10.2402 -10.2402c0 -5.64062 -4.59961 -10.2402 -10.2402 -10.2402c-5.63965 0 -10.2393 4.59961 -10.2393 10.2402
c0 5.63965 4.59961 10.2402 10.2393 10.2402zM133.12 -2.55957c5.63965 0 10.2402 -4.60059 10.2402 -10.2402c0 -5.64062 -4.60059 -10.2402 -10.2402 -10.2402s-10.2402 4.59961 -10.2402 10.2402c0 5.63965 4.60059 10.2402 10.2402 10.2402zM378.88 -2.55957
c5.63965 0 10.2402 -4.60059 10.2402 -10.2402c0 -5.64062 -4.60059 -10.2402 -10.2402 -10.2402s-10.2402 4.59961 -10.2402 10.2402c0 5.63965 4.60059 10.2402 10.2402 10.2402zM440.32 -2.55957c5.63965 0 10.2393 -4.60059 10.2393 -10.2402
c0 -5.64062 -4.59961 -10.2402 -10.2393 -10.2402c-5.64062 0 -10.2402 4.59961 -10.2402 10.2402c0 5.63965 4.59961 10.2402 10.2402 10.2402zM102.4 -33.2803c5.63965 0 10.2393 -4.59961 10.2393 -10.2393c0 -5.64062 -4.59961 -10.2402 -10.2393 -10.2402
c-5.64062 0 -10.2402 4.59961 -10.2402 10.2402c0 5.63965 4.59961 10.2393 10.2402 10.2393zM163.84 -33.2803c5.64062 0 10.2402 -4.59961 10.2402 -10.2393c0 -5.64062 -4.59961 -10.2402 -10.2402 -10.2402c-5.63965 0 -10.2402 4.59961 -10.2402 10.2402
c0 5.63965 4.60059 10.2393 10.2402 10.2393zM225.28 -33.2803c5.63965 0 10.2393 -4.59961 10.2393 -10.2393c0 -5.64062 -4.59961 -10.2402 -10.2393 -10.2402c-5.64062 0 -10.2402 4.59961 -10.2402 10.2402c0 5.63965 4.59961 10.2393 10.2402 10.2393zM286.72 -33.2803
c5.64062 0 10.2402 -4.59961 10.2402 -10.2393c0 -5.64062 -4.59961 -10.2402 -10.2402 -10.2402c-5.63965 0 -10.2393 4.59961 -10.2393 10.2402c0 5.63965 4.59961 10.2393 10.2393 10.2393zM348.16 -33.2803c5.63965 0 10.2402 -4.59961 10.2402 -10.2393
c0 -5.64062 -4.60059 -10.2402 -10.2402 -10.2402c-5.64062 0 -10.2402 4.59961 -10.2402 10.2402c0 5.63965 4.59961 10.2393 10.2402 10.2393zM409.6 -33.2803c5.64062 0 10.2402 -4.59961 10.2402 -10.2393c0 -5.64062 -4.59961 -10.2402 -10.2402 -10.2402
c-5.63965 0 -10.2393 4.59961 -10.2393 10.2402c0 5.63965 4.59961 10.2393 10.2393 10.2393z" />
    <glyph glyph-name="us-dollar" unicode="&#xf13a;" 
d="M256 437.76c135.6 0 245.76 -110.16 245.76 -245.76s-110.16 -245.76 -245.76 -245.76s-245.76 110.16 -245.76 245.76s110.16 245.76 245.76 245.76zM256 417.28c-124.52 0 -225.28 -100.761 -225.28 -225.28s100.761 -225.28 225.28 -225.28
s225.28 100.761 225.28 225.28s-100.761 225.28 -225.28 225.28zM246.72 345.6h20.4805v-28.7998c49.1602 -2.04004 69.5596 -43.96 67.5195 -72.6396h-21.4395c-1.04004 17.3994 -7.16016 56.3203 -56.3203 56.3203c-48.1201 0 -57.2803 -27.6406 -57.2803 -51.2002
c0 -70.6406 140.16 -23.3604 140.16 -115.521c0 -10.2402 -4.04004 -61.4395 -72.6396 -66.5596v-28.7998h-20.4805v28.7998c-27.6396 3.08008 -71.5596 12.04 -73.5996 80.6396h21.4395c-2.04004 -64.5195 60.3604 -64.3203 62.4004 -64.3203
c60.4004 0 62.4004 41.04 62.4004 50.2402c0 72.7207 -140.16 21.5205 -140.16 117.76c0 19.4404 10.1602 62.2002 67.5195 65.2803v28.7998z" />
    <glyph glyph-name="video-conference" unicode="&#xf123;" 
d="M28.7998 366.08h0.959961h0.959961h450.561c5.63965 0 10.2393 -4.59961 10.2393 -10.2402v-307.2c0 -5.63965 -4.59961 -10.2393 -10.2393 -10.2393h-450.561c-5.63965 0 -10.2393 4.59961 -10.2393 10.2393v307.2c-0.0800781 5 3.43945 9.32031 8.31934 10.2402z
M40.96 345.6v-286.72h430.08v286.72h-430.08zM256 314.88c33.7998 0 61.4404 -27.6396 61.4404 -61.4395c0 -21.4004 -11.1602 -40.2002 -27.8408 -51.2002c32.5205 -1.48047 58.5605 -28.5605 58.5605 -61.4404h-20.4805c0 22.7197 -18.2393 40.96 -40.96 40.96h-61.4395
c-22.7207 0 -40.96 -18.2402 -40.96 -40.96h-20.4805c0 32.8799 26.04 59.96 58.5605 61.4404c-16.6807 11 -27.8408 29.7998 -27.8408 51.2002c0 33.7998 27.6406 61.4395 61.4404 61.4395zM256 294.4c-22.7598 0 -40.96 -18.2002 -40.96 -40.96
c0 -22.7607 18.2002 -40.96 40.96 -40.96s40.96 18.1992 40.96 40.96c0 22.7598 -18.2002 40.96 -40.96 40.96zM102.4 120.32h61.4395v-40.96h-61.4395v40.96zM184.32 120.32h61.4395v-40.96h-61.4395v40.96zM266.24 120.32h61.4395v-40.96h-61.4395v40.96zM348.16 120.32
h61.4395v-40.96h-61.4395v40.96zM150.72 17.9199h0.959961h0.959961h0.959961h204.801c3.67969 0.0400391 7.11914 -1.87988 9 -5.08008c1.83984 -3.2002 1.83984 -7.12012 0 -10.3203c-1.88086 -3.19922 -5.32031 -5.11914 -9 -5.0791h-204.801
c-5.63965 -0.800781 -10.8799 3.15918 -11.6797 8.7998c-0.799805 5.63965 3.16016 10.8799 8.7998 11.6797z" />
    <glyph glyph-name="price-tag-usd" unicode="&#xf138;" 
d="M293.12 427.52c3.43945 0.0400391 6.71973 0 9.91992 0h152.64c19.6807 0 35.8398 -16.1592 35.8398 -35.8398c0 -1.04004 -0.119141 -39.1201 0 -77.1201c0.0800781 -19 0.160156 -37.9199 0.320312 -52.1592c0.0800781 -7.12012 0.240234 -13.1602 0.320312 -17.2803
c0.0400391 -1.24023 0.280273 -2 0.320312 -2.87988c0.0390625 -0.600586 0 -1.52051 0 -1.91992v-0.320312c0.0791016 -0.400391 0 -0.320312 0 -0.320312v-1.59961c0 -13.3203 1.39941 -29.3203 -10.2402 -40.96l-232.32 -232.64h-0.320312l-0.319336 -0.320312
c-12 -10.5205 -30.2803 -11 -41.6006 0.320312l-177.92 178.239l-0.639648 0.640625c-10.5205 12 -10.6797 30.2793 0.639648 41.5996l232 232l0.320312 0.320312c5.75977 6.35938 13.4395 8.67969 20.4795 9.59961c3.56055 0.480469 7.12012 0.600586 10.5605 0.639648z
M293.12 407.04c-3.04004 0 -5.67969 0 -8 -0.320312c-4.60059 -0.599609 -6.63965 -1.63965 -8 -3.2002l-232.96 -232.96c-2.95996 -2.95996 -3.52051 -9.0791 0 -13.4395l0.320312 -0.320312l177.92 -177.6c2.95996 -2.95996 8.75977 -3.52051 13.1191 0
c0.120117 0.0800781 0.200195 0.200195 0.320312 0.319336l232 232c2.64062 2.64062 4.12012 13.1602 4.16016 26.2402v0.320312c-0.0400391 0.479492 0.0400391 0.759766 0 1.28027c-0.0800781 1.31934 -0.280273 3.2793 -0.320312 5.43945
c-0.120117 4.32031 -0.239258 10.1201 -0.319336 17.2803c-0.160156 14.3203 -0.240234 33.4795 -0.320312 52.4795c-0.120117 38.04 0 76.0801 0 77.1201c0 8.95996 -6.40039 15.3604 -15.3604 15.3604h-152.64h-9.91992zM399.36 376.32
c22.5195 0 40.96 -18.4404 40.96 -40.96c0 -22.5205 -18.4404 -40.96 -40.96 -40.96c-22.5205 0 -40.96 18.4395 -40.96 40.96c0 22.5195 18.4395 40.96 40.96 40.96zM399.36 355.84c-11.4404 0 -20.4805 -9.04004 -20.4805 -20.4795
c0 -11.4404 9.04004 -20.4805 20.4805 -20.4805c11.4395 0 20.4795 9.04004 20.4795 20.4805c0 11.4395 -9.04004 20.4795 -20.4795 20.4795zM330.88 273.92l14.0801 -14.4004l-16.3203 -16.3193c17.4004 -24.5605 9.36035 -46.0801 -1.91992 -66.5605l-14.3994 14.4004
c9.19922 13.3203 11.1992 29.7598 -4.16016 45.1201c-21.5205 21.5195 -38.96 9.04004 -45.1201 2.87988c-14.3203 -14.3203 -4.91992 -31.7598 7.36035 -51.2002c14.3193 -23.5596 26.4395 -50.04 2.87988 -73.5996c-27.6406 -28.6807 -61.2402 -11.4404 -74.5605 -2.24023
l-13.4395 -13.1201l-14.4004 14.4004l14.4004 14.0801c-10.2402 14.3193 -24.5205 43 4.16016 76.7998l14.3994 -14.0801c-9.2002 -9.2002 -20.5996 -32.8398 1.91992 -55.3604c22.5205 -22.5195 37.96 -17.3994 50.2402 -5.12012
c34.7998 34.8008 -56.3203 78.7207 -10.2402 124.801c24.5605 24.5596 55.1602 13.4395 68.4805 3.19922z" />
    <glyph glyph-name="open-sign" unicode="&#xf126;" 
d="M256 396.8c16.8398 0 30.7197 -13.8799 30.7197 -30.7197c0 -1.56055 -0.0800781 -3 -0.319336 -4.48047l167.04 -108.159h27.8398c5.63965 0 10.2393 -4.60059 10.2393 -10.2402v-245.76c0 -5.64062 -4.59961 -10.2402 -10.2393 -10.2402h-450.561
c-5.63965 0 -10.2393 4.59961 -10.2393 10.2402v245.76c-0.0400391 5.31934 4 9.75977 9.2793 10.2402h0.959961h27.8398l167.04 108.159c-0.239258 1.48047 -0.319336 2.91992 -0.319336 4.48047c0 16.8398 13.8799 30.7197 30.7197 30.7197zM256 376.32
c-5.75977 0 -10.2402 -4.48047 -10.2402 -10.2402s4.48047 -10.2402 10.2402 -10.2402s10.2402 4.48047 10.2402 10.2402s-4.48047 10.2402 -10.2402 10.2402zM235.2 343.36l-139.2 -89.9199h320l-139.2 89.9199c-5.47949 -5.04004 -12.8799 -8 -20.7998 -8
s-15.3203 2.95996 -20.7998 8zM40.96 232.96v-225.28h430.08v225.28h-17.2803c-1.55957 -0.400391 -3.24023 -0.400391 -4.7998 0h-385.6c-1.68066 -0.44043 -3.44043 -0.44043 -5.12012 0h-17.2803zM117.76 181.76c19.6807 0 35.8398 -16.1602 35.8398 -35.8398v-51.2002
c0 -19.6797 -16.1592 -35.8398 -35.8398 -35.8398c-19.6797 0 -35.8398 16.1602 -35.8398 35.8398v51.2002c0 19.6797 16.1602 35.8398 35.8398 35.8398zM174.08 181.76h30.7197c22.5205 0 40.96 -18.4395 40.96 -40.96c0 -22.5195 -18.4395 -40.96 -40.96 -40.96h-10.2402
v-40.96h-20.4795v122.88zM266.24 181.76h61.4395v-20.4795h-40.96v-30.7207h30.7207v-20.4795h-30.7207v-30.7197h40.96v-20.4805h-61.4395v122.88zM348.16 181.76h28.1602l2.23926 -7.35938l20.8008 -69.4404v76.7998h20.4795v-122.88h-28.1602l-2.23926 7.36035
l-20.8008 69.4395v-76.7998h-20.4795v122.88zM117.76 161.28c-8.59961 0 -15.3594 -6.76074 -15.3594 -15.3604v-51.2002c0 -8.59961 6.75977 -15.3594 15.3594 -15.3594c8.60059 0 15.3604 6.75977 15.3604 15.3594v51.2002c0 8.59961 -6.75977 15.3604 -15.3604 15.3604z
M194.56 161.28v-40.96h10.2402c11.4404 0 20.4805 9.04004 20.4805 20.4795c0 11.4404 -9.04004 20.4805 -20.4805 20.4805h-10.2402z" />
    <glyph glyph-name="training" unicode="&#xf140;" 
d="M122.88 427.52c28.1602 0 51.2002 -23.0391 51.2002 -51.1992s-23.04 -51.2002 -51.2002 -51.2002s-51.2002 23.04 -51.2002 51.2002s23.04 51.1992 51.2002 51.1992zM296.96 427.52h20.4805v-20.4795h163.84c5.63965 0 10.2393 -4.59961 10.2393 -10.2402v-286.72
c0 -5.63965 -4.59961 -10.2402 -10.2393 -10.2402h-158.721l56.3203 -112.64h-20.4795l-51.2002 102.399l-51.2002 -102.399h-20.4805l56.3203 112.64h-87.04v20.4805h266.24v266.239h-276.48v20.4805h102.4v20.4795zM122.88 407.04
c-17.0801 0 -30.7197 -13.6396 -30.7197 -30.7197s13.6396 -30.7207 30.7197 -30.7207s30.7197 13.6406 30.7197 30.7207s-13.6396 30.7197 -30.7197 30.7197zM76.7998 314.88h15.3604c3.95996 0.0400391 7.55957 -2.2002 9.28027 -5.75977l21.4395 -42.8799
l21.4404 42.8799c1.71973 3.55957 5.31934 5.7998 9.2793 5.75977h143.36h0.639648c16.5605 -0.360352 30.0801 -14.0801 30.0801 -30.7197c0 -16.8398 -13.8799 -30.7197 -30.7197 -30.7197h-112.64v-261.12c0 -19.6807 -16.1602 -35.8398 -35.8398 -35.8398
c-10 0 -19.0801 4.19922 -25.6006 10.8799c-6.51953 -6.68066 -15.5996 -10.8799 -25.5996 -10.8799c-19.6807 0 -35.8398 16.1592 -35.8398 35.8398v109.439c-3.24023 -1.16016 -6.64062 -1.91992 -10.2402 -1.91992c-15.8398 0 -28.8799 12.3604 -30.4004 27.8398
c-0.240234 0.919922 -0.359375 1.91992 -0.319336 2.87988v0.640625c-0.0400391 0.439453 -0.0400391 0.839844 0 1.28027v126.079c0 31 25.3193 56.3203 56.3193 56.3203zM76.7998 294.4c-19.9199 0 -35.8398 -15.9199 -35.8398 -35.8408v-126.079
c0.0800781 -0.640625 0.0800781 -1.28027 0 -1.9209v-0.639648c0.320312 -5.47949 4.67969 -9.59961 10.2402 -9.59961c5.7998 0 10.2402 4.43945 10.2402 10.2393v0.640625v0.959961v100.8c-0.120117 4.87988 3.23926 9.16016 8 10.2402
c3.0791 0.679688 6.31934 -0.0800781 8.71973 -2.08008c2.43945 -2 3.83984 -5 3.75977 -8.16016v-240.64c0 -8.60059 6.75977 -15.3604 15.3604 -15.3604c8.08008 0 14.5996 5.91992 15.3594 13.7598v2.24023c-0.0400391 0.44043 -0.0400391 0.839844 0 1.28027v105.6
c-0.120117 4.87988 3.24023 9.16016 8 10.2402c0.400391 0.120117 0.84082 0.240234 1.28027 0.320312c2.91992 0.279297 5.83984 -0.720703 8 -2.76074c2.12012 -2 3.32031 -4.83984 3.2002 -7.7998v-105.6v-0.959961v-2.56055
c0.759766 -7.83984 7.28027 -13.7598 15.3604 -13.7598c8.59961 0 15.3594 6.75977 15.3594 15.3604v271.359c0 5.64062 4.60059 10.2402 10.2402 10.2402h122.88c5.7998 0 10.2402 4.44043 10.2402 10.2402c0 5.43945 -3.95996 9.75977 -9.28027 10.2402h-0.959961h-136.96
l-27.8398 -55.6807c-1.67969 -3.59961 -5.32031 -5.91992 -9.28027 -5.91992s-7.59961 2.32031 -9.28027 5.91992l-27.8398 55.6807h-8.95996z" />
    <glyph glyph-name="about" unicode="&#xf163;" 
d="M256 437.76c141.12 0 255.04 -102.479 255.04 -228.479c0 -126.04 -114.92 -227.2 -256 -227.2c-18.96 0 -37.04 2.32031 -55.04 6.08008c-18.2402 -8 -52.7998 -22.4805 -89.5996 -32.6406c-18.96 -5.23926 -38.2803 -9.31934 -56 -10.5596
c-17.7207 -1.24023 -34.1602 0.0800781 -47.3604 7.67969l-3.52051 2.24023l-1.2793 4.16016c-1.44043 5.44043 0.599609 10.5195 2.87988 14.0801c2.28027 3.55957 5.16016 6.43945 8.32031 9.28027c6.35938 5.71973 14.3594 11.6396 22.7197 18.5596
c15.5195 12.8799 30.8799 29.6396 37.7598 50.8799c-45.5195 41.2002 -73.9199 96.7998 -73.9199 158.72c0 126.04 114.92 227.2 256 227.2zM256 417.28c-131.32 0 -235.52 -93.1602 -235.52 -206.721c0 -58.2393 26.8799 -110.88 72 -149.119l5.11914 -3.84082
l-1.59961 -6.39941c-7.48047 -30.5205 -28.8799 -51.1201 -46.7197 -65.9199c-8.12012 -6.76074 -15.0801 -11.96 -20.1602 -16.3203c7.12012 -1.75977 13.5596 -4.24023 24 -3.51953c15.5996 1.0791 33.6797 4.91992 51.8398 9.91992
c36.2803 10 72.4805 24.7598 89.5996 32.3193l2.88086 1.60059l3.51953 -0.959961c17.7197 -3.91992 35.3604 -5.76074 54.0801 -5.76074c131.32 0 235.52 93.1602 235.52 206.721c0 113.64 -103.279 208 -234.56 208zM243.84 316.8h24.3203
c2.04004 0 4.16016 -0.759766 4.16016 -3.83984v-26.8799c0 -2.04004 -1.08008 -3.83984 -4.16016 -3.83984h-24.3203c-2.04004 0 -4.16016 0.759766 -4.16016 3.83984v26.8799c0 2.04004 1.08008 3.83984 4.16016 3.83984zM244.8 242.24h23.3604
c2.04004 0 4.16016 -1.08008 4.16016 -4.16016v-138.24c0 -2.04004 -1.08008 -4.16016 -4.16016 -4.16016h-23.3604v0.959961c-2.04004 0 -4.16016 1.08008 -4.16016 4.16016v137.28c0 2.04004 1.08008 4.16016 4.16016 4.16016z" />
    <glyph glyph-name="small-business" unicode="&#xf128;" 
d="M59.5195 427.52h0.960938h0.959961h389.119c5.64062 0 10.2402 -4.59961 10.2402 -10.2393v-39.6807c0.320312 -1.19922 4.95996 -18.96 9.91992 -38.3994c2.56055 -10.04 5.12012 -20.2402 7.04004 -28.1602c0.959961 -3.95996 1.64062 -7.32031 2.24023 -9.91992
c0.280273 -1.28027 0.759766 -2.28027 0.959961 -3.2002s0.320312 -0.839844 0.320312 -3.51953c0 -10.5205 -4.28027 -19.9199 -10.8799 -27.2002c0.399414 -1.12012 0.639648 -2.32031 0.639648 -3.52051v-296.96c0 -5.63965 -4.59961 -10.2393 -10.2402 -10.2393h-409.6
c-5.64062 0 -10.2402 4.59961 -10.2402 10.2393v296.96c0 1.2002 0.240234 2.40039 0.639648 3.52051c-6.59961 7.28027 -10.8799 16.6797 -10.8799 27.2002c0 2.67969 0.120117 2.59961 0.320312 3.51953s0.679688 1.91992 0.959961 3.2002
c0.599609 2.59961 1.28027 5.95996 2.24023 9.91992c1.91992 7.91992 4.47949 18.1201 7.04004 28.1602c4.95996 19.4395 9.59961 37.2002 9.91992 38.3994v39.6807c-0.0800781 5 3.43945 9.31934 8.31934 10.2393zM71.6797 407.04v-20.4805h368.641v20.4805h-368.641z
M69.4404 366.08c-1.44043 -5.52051 -4.2002 -15.8799 -8.32031 -32c-2.56055 -10 -5.12012 -20.04 -7.04004 -27.8398c-0.959961 -3.87988 -1.71973 -7.24023 -2.24023 -9.60059c-0.240234 -1.04004 -0.519531 -1.63965 -0.639648 -2.23926
c0 -2.24023 -0.120117 -0.919922 0 -0.320312c0.160156 -11.2803 9.16016 -20.1602 20.4795 -20.1602c11.4404 0 20.4805 9.04004 20.4805 20.4805v0.639648c-0.0400391 0.44043 -0.0400391 0.839844 0 1.28027c0.0800781 0.319336 0.200195 0.639648 0.320312 0.959961
c0.279297 1.04004 0.719727 2 1.2793 2.87988c0.200195 0.240234 0.400391 0.439453 0.640625 0.639648c0.199219 0.320312 0.399414 0.640625 0.639648 0.959961c0.200195 0.240234 0.400391 0.44043 0.639648 0.640625
c0.200195 0.239258 0.400391 0.439453 0.640625 0.639648c0.599609 0.400391 1.23926 0.719727 1.91992 0.959961c0.719727 0.280273 1.47949 0.519531 2.24023 0.639648c0.319336 0.120117 0.639648 0.240234 0.959961 0.320312
c2.11914 0.200195 4.23926 -0.240234 6.0791 -1.28027c1.44043 -0.879883 2.64062 -2.08008 3.52051 -3.51953c0.360352 -0.520508 0.679688 -1.04004 0.959961 -1.60059v-0.319336c0.120117 -0.200195 0.240234 -0.44043 0.320312 -0.640625v-0.319336
c0.160156 -0.640625 0.279297 -1.28027 0.319336 -1.91992v-0.959961c0 -11.4404 9.04004 -20.4805 20.4805 -20.4805c11.4395 0 20.4795 9.04004 20.4795 20.4805v0.639648c-0.0400391 0.44043 -0.0400391 0.839844 0 1.28027
c0.160156 0.639648 0.360352 1.31934 0.640625 1.91992c0.0800781 0.319336 0.200195 0.639648 0.319336 0.959961c0.200195 0.240234 0.400391 0.439453 0.640625 0.639648v0.320312c0.200195 0.240234 0.399414 0.439453 0.639648 0.639648
c0.200195 0.320312 0.400391 0.640625 0.640625 0.959961c1.39941 1.44043 3.15918 2.44043 5.11914 2.87988c1.36035 0.280273 2.80078 0.280273 4.16016 0c2.75977 -0.519531 5.2002 -2.12012 6.7207 -4.47949c0.359375 -0.520508 0.679688 -1.04004 0.959961 -1.60059
c0.119141 -0.399414 0.239258 -0.839844 0.319336 -1.2793c0.160156 -0.640625 0.280273 -1.28027 0.320312 -1.91992v-0.959961c0 -11.4404 9.04004 -20.4805 20.4795 -20.4805c11.4404 0 20.4805 9.04004 20.4805 20.4805v0.639648
c-0.0400391 0.44043 -0.0400391 0.839844 0 1.28027c0.320312 1.2793 0.839844 2.43945 1.59961 3.51953v0.320312c0.200195 0.240234 0.400391 0.439453 0.640625 0.639648c0.200195 0.320312 0.399414 0.640625 0.639648 0.959961
c1.40039 1.44043 3.16016 2.44043 5.12012 2.87988c1.36035 0.280273 2.7998 0.280273 4.16016 0c2.75977 -0.519531 5.2002 -2.12012 6.71973 -4.47949c0.360352 -0.520508 0.679688 -1.04004 0.959961 -1.60059c0.120117 -0.399414 0.240234 -0.839844 0.320312 -1.2793
c0.160156 -0.640625 0.280273 -1.28027 0.319336 -1.91992v-0.959961c0 -11.4404 9.04004 -20.4805 20.4805 -20.4805s20.4805 9.04004 20.4805 20.4805v0.639648c-0.0400391 0.44043 -0.0400391 0.839844 0 1.28027c0.319336 1.2793 0.839844 2.43945 1.59961 3.51953
v0.320312c0.200195 0.240234 0.400391 0.439453 0.639648 0.639648c0.200195 0.320312 0.400391 0.640625 0.640625 0.959961c0.479492 0.480469 1.04004 0.919922 1.59961 1.28027c0.520508 0.360352 1.04004 0.679688 1.59961 0.959961
c0.600586 0.280273 1.28027 0.480469 1.9209 0.639648c1.35938 0.280273 2.7998 0.280273 4.15918 0c2.76074 -0.519531 5.2002 -2.12012 6.7207 -4.47949c0.359375 -0.520508 0.679688 -1.04004 0.959961 -1.60059c0.120117 -0.399414 0.239258 -0.839844 0.319336 -1.2793
c0.160156 -0.640625 0.280273 -1.28027 0.320312 -1.91992v-0.959961c0 -11.4404 9.04004 -20.4805 20.4805 -20.4805c11.4395 0 20.4795 9.04004 20.4795 20.4805c-0.0400391 0.519531 -0.0400391 1.08008 0 1.59961c0.160156 1.12012 0.480469 2.2002 0.959961 3.2002
c0.200195 0.240234 0.400391 0.439453 0.639648 0.639648c0.200195 0.320312 0.400391 0.640625 0.640625 0.959961c0.200195 0.240234 0.399414 0.44043 0.639648 0.640625c0.200195 0.319336 0.400391 0.639648 0.640625 0.959961
c1.2793 1.11914 2.83984 1.87988 4.47949 2.23926c1.36035 0.280273 2.7998 0.280273 4.16016 0c0.639648 -0.15918 1.32031 -0.359375 1.91992 -0.639648c0.320312 -0.0800781 0.639648 -0.200195 0.959961 -0.320312c0.55957 -0.359375 1.12012 -0.799805 1.59961 -1.2793
c0.84082 -0.640625 1.60059 -1.40039 2.24023 -2.24023c0.120117 -0.320312 0.240234 -0.640625 0.320312 -0.959961c0.240234 -0.200195 0.439453 -0.400391 0.639648 -0.640625c0.120117 -0.399414 0.240234 -0.839844 0.320312 -1.2793
c0.160156 -0.640625 0.280273 -1.28027 0.320312 -1.91992v-0.959961c0 -11.4404 9.04004 -20.4805 20.4795 -20.4805c11.4404 0 20.4805 9.04004 20.4805 20.4805v0.639648c0.0400391 0.759766 0.120117 1.51953 0.319336 2.24023
c0.0800781 0.319336 0.200195 0.639648 0.320312 0.959961c0.0800781 0.319336 0.200195 0.639648 0.320312 0.959961c0.199219 0.240234 0.399414 0.439453 0.639648 0.639648c0.520508 0.959961 1.16016 1.7998 1.91992 2.56055
c0.520508 0.359375 1.04004 0.679688 1.60059 0.959961c4.71973 2.75977 10.7598 1.35938 13.7598 -3.2002c0.55957 -0.879883 1 -1.83984 1.2793 -2.87988c0.160156 -0.640625 0.280273 -1.28027 0.320312 -1.91992v-0.959961
c0 -11.4404 9.04004 -20.4805 20.4805 -20.4805c11.3193 0 20.3193 8.87988 20.4795 20.1602c-0.120117 0.599609 -0.359375 1.36035 -0.639648 2.55957c-0.520508 2.36035 -1.28027 5.7207 -2.24023 9.60059c-1.91992 7.7998 -4.47949 17.8398 -7.04004 27.8398
c-4.12012 16.1201 -6.87988 26.4795 -8.32031 32h-373.119zM102.4 267.84c-7.52051 -8.67969 -18.4404 -14.3994 -30.7207 -14.3994c-3.51953 0 -6.95996 0.759766 -10.2393 1.59961v-278.08h40.96v235.521c-0.0400391 5.31934 4 9.75977 9.2793 10.2393h0.959961h141.12
c1.36035 0.280273 2.7998 0.280273 4.16016 0h141.44c5.63965 0 10.2393 -4.59961 10.2393 -10.2393v-235.521h40.96v278.08c-3.2793 -0.839844 -6.71973 -1.59961 -10.2393 -1.59961c-12.2803 0 -23.2002 5.71973 -30.7207 14.3994
c-7.51953 -8.67969 -18.4395 -14.3994 -30.7197 -14.3994s-23.2002 5.71973 -30.7197 14.3994c-7.52051 -8.67969 -18.4404 -14.3994 -30.7197 -14.3994c-12.2803 0 -23.2002 5.71973 -30.7207 14.3994c-7.51953 -8.67969 -18.4395 -14.3994 -30.7197 -14.3994
s-23.2002 5.71973 -30.7197 14.3994c-7.52051 -8.67969 -18.4404 -14.3994 -30.7207 -14.3994c-12.2793 0 -23.1992 5.71973 -30.7197 14.3994c-7.51953 -8.67969 -18.4395 -14.3994 -30.7197 -14.3994s-23.2002 5.71973 -30.7197 14.3994zM122.88 202.24v-225.28h122.88
v225.28h-122.88zM266.24 202.24v-225.28h122.88v225.28h-122.88zM215.04 110.08c5.63965 0 10.2402 -4.59961 10.2402 -10.2402c0 -5.63965 -4.60059 -10.2402 -10.2402 -10.2402s-10.2402 4.60059 -10.2402 10.2402c0 5.64062 4.60059 10.2402 10.2402 10.2402z
M296.96 110.08c5.63965 0 10.2402 -4.59961 10.2402 -10.2402c0 -5.63965 -4.60059 -10.2402 -10.2402 -10.2402s-10.2402 4.60059 -10.2402 10.2402c0 5.64062 4.60059 10.2402 10.2402 10.2402z" />
    <glyph glyph-name="filter" unicode="&#xf133;" 
d="M39.04 427.52h0.959961h0.959961h430.08c5.63965 0 10.2402 -4.59961 10.2402 -10.2393v-29.1201c0.0400391 -0.520508 0.0400391 -1.08008 0 -1.60059v-0.639648c-0.0400391 -1.43945 -0.360352 -2.83984 -0.959961 -4.16016
c-0.200195 -0.240234 -0.400391 -0.439453 -0.640625 -0.639648c-0.359375 -0.560547 -0.799805 -1.12012 -1.2793 -1.60059l-1.28027 -1.2793l-0.320312 -0.320312l-159.359 -169.28v-241.92c-0.0800781 -3.59961 -2.08008 -6.91992 -5.2002 -8.67969
c-3.16016 -1.7998 -7.04004 -1.75977 -10.1602 0.0400391l-102.4 61.4395c-3.08008 1.80078 -5.04004 5.08008 -5.12012 8.64062v180.479l-160.96 170.88c-1.83984 1.88086 -2.83984 4.40039 -2.87988 7.04004v30.7207c-0.0800781 5 3.44043 9.31934 8.32031 10.2393z
M51.2002 407.04v-16.6396l158.08 -167.681h93.4395l158.08 167.681v16.6396h-409.6zM215.04 202.24v-168.641l81.9199 -48.96v217.601h-81.9199z" />
    <glyph glyph-name="twitter-filled" unicode="&#xf160;" 
d="M512.64 341.12c-14.1201 -21.1201 -31.96 -39.6797 -52.5195 -54.5205c0.160156 -4.47949 0.280273 -9.08008 0.280273 -13.6396c0 -139.12 -105.92 -299.56 -299.601 -299.56c-59.4795 0 -114.84 17.3994 -161.399 47.3193
c8.19922 -1 16.5596 -1.47949 25.0801 -1.47949c49.3594 0 94.7598 16.7998 130.76 45.04c-46.04 0.839844 -84.9199 31.3594 -98.3604 73.1602c6.44043 -1.28027 13.04 -1.9209 19.8398 -1.9209c9.60059 0 18.9199 1.28027 27.7207 3.68066
c-48.1201 9.71973 -84.4404 52.2402 -84.4404 103.28v1.31934c14.2002 -7.87988 30.4404 -12.6396 47.7197 -13.2002c-28.2793 18.9199 -46.8398 51.1602 -46.8398 87.6807c0 19.2793 5.16016 37.3594 14.2402 52.96c51.96 -63.7207 129.52 -105.641 217.04 -110.04
c-1.7998 7.71973 -2.75977 15.7598 -2.75977 24c0 58.1602 47.1592 105.28 105.319 105.28c30.2803 0 57.6406 -12.7607 76.8398 -33.2402c23.96 4.71973 46.5605 13.4795 66.8809 25.5195c-7.84082 -24.5596 -24.5605 -45.2002 -46.3203 -58.2402
c21.3203 2.56055 41.5996 8.2002 60.5195 16.6006z" />
    </font>
</defs>
</svg>
