<svg xmlns="http://www.w3.org/2000/svg" xmlns:xlink="http://www.w3.org/1999/xlink" width="30" height="30"><defs><symbol id="icon-arlo-logo-for-font" viewBox="0 0 2267.717 2267.717"><path d="M475.825 1087.944c26.595 0 56.617 11.152 72.917 25.738v128.684c-20.59 16.3-47.18 25.732-72.917 25.732-51.476 0-84.932-35.17-84.932-89.217 0-55.76 32.6-90.936 84.932-90.936zm1320.6 3.434c-49.757 0-84.07 38.604-84.07 87.503 0 47.186 34.313 86.647 84.07 86.647 51.475 0 84.93-39.46 84.93-86.646 0-48.9-33.455-87.502-84.93-87.502zM2209 1121.25c0 594.904-482.26 1077.166-1077.165 1077.166S54.67 1716.154 54.67 1121.25 536.932 44.08 1131.836 44.08 2209 526.346 2209 1121.25zM782.943 1392.49l-3.434-130.396c-13.723 6.004-26.595 10.295-41.174 10.295-20.59 0-24.88-17.157-24.88-37.748v-281.38H548.74v40.318c-27.452-29.166-66.913-48.042-120.96-48.042-120.958 0-204.17 96.94-204.17 233.343 0 134.69 83.212 230.767 204.17 230.767 58.338 0 104.66-27.452 132.97-62.622 17.155 45.465 54.903 63.48 108.95 63.48 46.327 0 88.36-8.576 113.24-18.014zm440.685-428.934c-.857-2.577-37.747-18.02-79.778-18.02-54.905 0-84.933 26.595-105.524 66.92-17.157-48.043-55.76-66.92-109.807-66.92-60.052 0-112.38 16.3-114.1 18.02l4.292 129.54c1.714-.863 24.018-9.438 42.038-9.438 19.727 0 23.16 16.3 23.16 37.747v280.522h164.712v-229.052c2.577-39.46 19.733-76.35 67.776-76.35 44.608 0 85.783 15.442 87.503 18.013l19.727-150.982zm285.11 428.937l-5.142-130.397c-14.586 6.005-28.315 10.295-42.038 10.295-20.59 0-25.738-17.155-25.738-38.603V792.84h-164.712v482.122c0 100.375 47.185 135.545 121.816 135.545 48.9 0 93.508-11.152 115.812-18.014zm531.325-213.613c0-136.402-102.946-237.628-243.638-237.628-138.973 0-241.918 101.226-241.918 237.628 0 134.688 102.946 235.057 241.918 235.057 140.692 0 243.638-100.368 243.638-235.057z"/></symbol></defs><g><use xlink:href="#icon-arlo-logo-for-font" width="24" height="24" x="3" y="3"/></g></svg>