<svg xmlns="http://www.w3.org/2000/svg" xmlns:xlink="http://www.w3.org/1999/xlink" viewBox="0 0 142.27 134.62" width="150" height="150"><defs><style>.cls-1{fill:url(#linear-gradient);}.cls-2{fill:#a8a8a8;}.cls-3{fill:#f4f4f4;}.cls-4{fill:#babab9;}</style><linearGradient id="linear-gradient" x1="527.78" y1="-302.82" x2="527.78" y2="-124.43" gradientTransform="matrix(0.31, 0, 0, -0.31, -90.06, 43.19)" gradientUnits="userSpaceOnUse"><stop offset="0" stop-color="#fff"/><stop offset="0.24" stop-color="#fbfbfb"/><stop offset="0.48" stop-color="#f0f0ef"/><stop offset="0.71" stop-color="#dcdcdc"/><stop offset="0.95" stop-color="#c1c1c0"/><stop offset="1" stop-color="#babab9"/></linearGradient></defs><title>placeholder-image-user-1</title><g id="Layer_2" data-name="Layer 2"><g id="Layer_1-2" data-name="Layer 1"><g id="Layer_2-2" data-name="Layer 2"><g id="Layer_1-2-2" data-name="Layer 1-2"><path class="cls-1" d="M93.3,87.49s.21,18.86,2.72,20.71,12.27,6.85,12.27,6.85l1.4-.52s-.84-.53,1.39,1.58,8.94,3.17,8.94,3.17l12.55,6.33s7.81,4,7.81,5.54v1.58H2.62l12.83-10.29,9.76-2.11s3.35-3.68,5-3.16l1.68.53,12-7.59A12.59,12.59,0,0,0,47,101.35c-.28-5.27-.28-13.85-.28-13.85Z"/><path class="cls-2" d="M40.25,61.8s-4.47-11.6-5.58-13.44.83-8.17,0-9.49S33.55,18.3,40.25,12.5,50.83,5.12,50.83,5.12s.28-2.37,6.43-2.37.89-4,10.91-2.38S80.13,2,80.13,2l2.23-.27s8.09,3.17,7.53,6.59,8.09,0,8.09,0v2.37s7.25.26,7.25,18.46c0,17.51-1.35,23.78-3.35,24.78s-4.18,4.75-4.18,4.75S97.14,26.74,88.21,27s-15.47,4.76-37.09,0C46.38,26,37.74,55.48,40.25,61.8Z"/><path class="cls-3" d="M40,73.41A30.72,30.72,0,0,0,54.19,98.2c14.5,9.24,25.93,1.58,25.93,1.58s15.34-11.32,15.62-17.4,2.51-9,2.51-9A4,4,0,0,0,101,72.09c1.12-1.32,1.39-9.76,2.23-12.13s1.4-6.33-1.39-6.07-4.19,4.75-4.19,4.75.56-7.38-1.11-12.13,1.39-15.3-5.3-19.24S76.07,24.63,72,26s-12.76.52-18.06-1.32-9.77,6.85-10.6,10.81-3.63,20-3.35,23.2l.28,3.16s-1.95-8.43-3.63-9-4.74-.53-4.18,5.82,1.23,1.42,3.63,13.18C37.46,78.68,40,73.41,40,73.41Z"/><path class="cls-4" d="M120,119c-6-3.06-10.6-5.8-13.11-6.86S99,109.34,99,109.34L98,111S93,122.18,69.37,122.18a32.42,32.42,0,0,1-25.48-12.33c-5.32,1.51-17.34,6.88-19.53,8.9s-4.61,3.29-7.29,3.07C13.89,121.57,2,133.14,0,134.62H142.25C142.81,129.09,126.06,122.08,120,119Z"/></g></g></g></g></svg>